<svg width="37" height="37" viewBox="0 0 37 37" fill="none" xmlns="http://www.w3.org/2000/svg">
<path d="M17.0853 0.556243C20.7194 0.269734 24.3548 1.09337 27.5105 2.91818C30.6663 4.74299 33.1936 7.48295 34.758 10.7755C36.3225 14.0681 36.8504 17.7581 36.2719 21.3572C35.6933 24.9564 34.0357 28.2951 31.5181 30.9315C29.0006 33.5679 25.742 35.3778 22.1733 36.1218C18.6047 36.8657 14.8943 36.5085 11.5331 35.0976C8.17183 33.6867 5.31822 31.2884 3.3498 28.2202C1.38138 25.152 0.390942 21.5584 0.509531 17.915C0.516179 17.6934 0.56641 17.4753 0.657357 17.2731C0.748304 17.0709 0.878185 16.8886 1.03959 16.7366C1.20098 16.5846 1.39074 16.4659 1.59802 16.3872C1.8053 16.3085 2.02605 16.2715 2.24766 16.2781C2.46926 16.2848 2.68739 16.335 2.88958 16.4259C3.09177 16.5169 3.27407 16.6468 3.42607 16.8082C3.57807 16.9696 3.69679 17.1593 3.77545 17.3666C3.85411 17.5739 3.89118 17.7946 3.88453 18.0162C3.77051 21.4652 4.87971 24.8433 7.016 27.5534C9.15229 30.2634 12.1781 32.1308 15.5583 32.8253C18.9385 33.5197 22.4554 32.9966 25.4871 31.3483C28.5188 29.7001 30.8701 27.0329 32.1251 23.8184C33.3801 20.6039 33.458 17.0491 32.3451 13.7827C31.2321 10.5163 29 7.74863 26.0434 5.9691C23.0868 4.18957 19.5962 3.51282 16.1889 4.0585C12.7815 4.60419 9.67678 6.33716 7.42378 8.95099L6.96478 9.50899H12.3175L12.547 9.52699C12.9509 9.58257 13.3211 9.78249 13.589 10.0898C13.8569 10.3971 14.0045 10.791 14.0045 11.1987C14.0045 11.6064 13.8569 12.0004 13.589 12.3077C13.3211 12.615 12.9509 12.8149 12.547 12.8705L12.3175 12.8862H3.31753L3.08803 12.8705C2.72319 12.8204 2.38475 12.6523 2.12435 12.3919C1.86395 12.1315 1.69588 11.7931 1.64578 11.4282L1.63003 11.1987V2.19874L1.64578 1.96924C1.69588 1.6044 1.86395 1.26596 2.12435 1.00556C2.38475 0.745161 2.72319 0.57709 3.08803 0.526993L3.31753 0.511243L3.54703 0.526993C3.91187 0.57709 4.25031 0.745161 4.51071 1.00556C4.77111 1.26596 4.93918 1.6044 4.98928 1.96924L5.00503 2.19874L5.00278 6.59299C8.09101 3.08512 12.4257 0.920183 17.0853 0.558493V0.556243ZM17.9358 9.50899L18.1653 9.52474C18.5301 9.57484 18.8686 9.74291 19.129 10.0033C19.3894 10.2637 19.5574 10.6022 19.6075 10.967L19.6233 11.1965V18.4977L23.5608 18.5L23.7903 18.5157C24.1959 18.5695 24.5682 18.7688 24.8378 19.0765C25.1074 19.3842 25.2561 19.7795 25.2561 20.1886C25.2561 20.5978 25.1074 20.993 24.8378 21.3007C24.5682 21.6085 24.1959 21.8077 23.7903 21.8615L23.5608 21.875H17.9358L17.7063 21.8615C17.3411 21.8113 17.0024 21.6429 16.742 21.382C16.4815 21.1212 16.3137 20.7822 16.264 20.417L16.2483 20.1875V11.1965L16.264 10.967C16.3141 10.6022 16.4822 10.2637 16.7426 10.0033C17.003 9.74291 17.3414 9.57484 17.7063 9.52474L17.9358 9.50899Z" fill="#E21312"/>
</svg>
