<svg width="50" height="50" viewBox="0 0 50 50" fill="none" xmlns="http://www.w3.org/2000/svg">
<path d="M22.9771 5.29163C23.5959 4.94796 24.2921 4.76762 25 4.76762C25.7079 4.76762 26.4041 4.94796 27.0229 5.29163L42.6792 13.9875C43.0038 14.168 43.2742 14.432 43.4625 14.7521C43.6507 15.0722 43.75 15.4369 43.75 15.8083V32.9645C43.7498 33.7076 43.551 34.437 43.174 35.0773C42.7971 35.7176 42.2558 36.2455 41.6063 36.6062L27.0229 44.7104C26.4041 45.0541 25.7079 45.2344 25 45.2344C24.2921 45.2344 23.5959 45.0541 22.9771 44.7104L8.39375 36.6062C7.74449 36.2457 7.2034 35.7181 6.82649 35.0782C6.44958 34.4383 6.25055 33.7093 6.25 32.9666V15.8083C6.24998 15.4369 6.34926 15.0722 6.53753 14.7521C6.72581 14.432 6.99624 14.168 7.32083 13.9875L22.9792 5.29163H22.9771Z" stroke="#E21312" stroke-width="2" stroke-linecap="round" stroke-linejoin="round"/>
<path d="M25 25V45.8333M6.25 14.5833L25 25L6.25 14.5833ZM25 25L43.75 14.5833L25 25Z" stroke="#E21312" stroke-width="2" stroke-linejoin="round"/>
<path d="M15.625 19.7917L34.375 9.375" stroke="#E21312" stroke-width="2" stroke-linecap="round" stroke-linejoin="round"/>
<path d="M12.5 25.6833L18.75 29.1666" stroke="#E21312" stroke-width="2" stroke-linecap="round" stroke-linejoin="round"/>
</svg>
