<svg width="40" height="40" viewBox="0 0 40 40" fill="none" xmlns="http://www.w3.org/2000/svg">
<path d="M20 40C16.3802 40 13.0339 39.1081 9.96094 37.3242C6.88802 35.5404 4.45964 33.112 2.67578 30.0391C0.891927 26.9661 0 23.6198 0 20C0 16.3802 0.891927 13.0339 2.67578 9.96094C4.45964 6.88802 6.88802 4.45964 9.96094 2.67578C13.0339 0.891927 16.3802 0 20 0C23.6198 0 26.9661 0.891927 30.0391 2.67578C33.112 4.45964 35.5404 6.88802 37.3242 9.96094C39.1081 13.0339 40 16.3802 40 20C40 23.6198 39.1081 26.9661 37.3242 30.0391C35.5404 33.112 33.112 35.5404 30.0391 37.3242C26.9661 39.1081 23.6198 40 20 40ZM2.5 20C2.5 22.3698 2.96224 24.6354 3.88672 26.7969C4.8112 28.9583 6.05469 30.8203 7.61719 32.3828C9.17969 33.9453 11.0417 35.1888 13.2031 36.1133C15.3646 37.0378 17.6302 37.5 20 37.5C22.3698 37.5 24.6354 37.0378 26.7969 36.1133C28.9583 35.1888 30.8203 33.9453 32.3828 32.3828C33.9453 30.8203 35.1888 28.9583 36.1133 26.7969C37.0378 24.6354 37.5 22.3698 37.5 20H20V2.5C17.6302 2.5 15.3646 2.96224 13.2031 3.88672C11.0417 4.8112 9.17969 6.05469 7.61719 7.61719C6.05469 9.17969 4.8112 11.0417 3.88672 13.2031C2.96224 15.3646 2.5 17.6302 2.5 20Z" fill="white"/>
</svg>
