<svg width="19" height="11" viewBox="0 0 19 11" fill="none" xmlns="http://www.w3.org/2000/svg">
<path d="M18.05 0H0.95C0.698044 0 0.456408 0.0827805 0.278249 0.230131C0.100089 0.377481 0 0.57733 0 0.785714V3.92857H0.84835C1.79455 3.92857 2.67235 4.46364 2.82435 5.236C2.87066 5.46153 2.8569 5.6927 2.78404 5.91338C2.71118 6.13406 2.58097 6.33893 2.4025 6.51369C2.22403 6.68845 2.00159 6.8289 1.75072 6.92523C1.49985 7.02156 1.22659 7.07146 0.95 7.07143H0V10.2143C0 10.4227 0.100089 10.6225 0.278249 10.7699C0.456408 10.9172 0.698044 11 0.95 11H18.05C18.302 11 18.5436 10.9172 18.7218 10.7699C18.8999 10.6225 19 10.4227 19 10.2143V7.07143H18.05C17.7734 7.07146 17.5001 7.02156 17.2493 6.92523C16.9984 6.8289 16.776 6.68845 16.5975 6.51369C16.419 6.33893 16.2888 6.13406 16.216 5.91338C16.1431 5.6927 16.1293 5.46153 16.1756 5.236C16.3277 4.46364 17.2055 3.92857 18.1516 3.92857H19V0.785714C19 0.57733 18.8999 0.377481 18.7218 0.230131C18.5436 0.0827805 18.302 0 18.05 0ZM8.55 9.42857H6.65V7.85714H8.55V9.42857ZM8.55 6.28571H6.65V4.71429H8.55V6.28571ZM8.55 3.14286H6.65V1.57143H8.55V3.14286Z" fill="#E21312"/>
</svg>
