<svg width="112" height="112" viewBox="0 0 112 112" fill="none" xmlns="http://www.w3.org/2000/svg">
<path d="M89.1524 27.79C89.6301 27.3026 90.2002 26.9153 90.8295 26.651C91.4587 26.3866 92.1343 26.2505 92.8168 26.2505C93.4994 26.2505 94.175 26.3866 94.8042 26.651C95.4335 26.9153 96.0036 27.3026 96.4814 27.79C98.4834 29.813 98.5114 33.082 96.5514 35.14L55.1604 84.07C54.6904 84.586 54.1201 85.0008 53.4844 85.2889C52.8487 85.5769 52.1608 85.7323 51.463 85.7454C50.7652 85.7585 50.072 85.6291 49.4259 85.3651C48.7798 85.1011 48.1943 84.708 47.7054 84.21L22.5193 58.688C21.548 57.6974 21.0039 56.3654 21.0039 54.978C21.0039 53.5906 21.548 52.2586 22.5193 51.268C22.9971 50.7806 23.5672 50.3933 24.1965 50.129C24.8257 49.8646 25.5013 49.7285 26.1838 49.7285C26.8664 49.7285 27.542 49.8646 28.1712 50.129C28.8005 50.3933 29.3706 50.7806 29.8483 51.268L51.2124 72.919L89.0124 27.944C89.0559 27.8899 89.1026 27.8385 89.1524 27.79Z" fill="white"/>
</svg>
