<svg width="33" height="23" viewBox="0 0 33 23" fill="none" xmlns="http://www.w3.org/2000/svg">
<path d="M2 9.92358C1.17157 9.92358 0.5 10.5952 0.5 11.4236C0.5 12.252 1.17157 12.9236 2 12.9236L2 9.92358ZM32.0607 12.4842C32.6464 11.8985 32.6464 10.9487 32.0607 10.3629L22.5147 0.816981C21.9289 0.231194 20.9792 0.231194 20.3934 0.816981C19.8076 1.40277 19.8076 2.35251 20.3934 2.9383L28.8787 11.4236L20.3934 19.9089C19.8076 20.4947 19.8076 21.4444 20.3934 22.0302C20.9792 22.616 21.9289 22.616 22.5147 22.0302L32.0607 12.4842ZM2 12.9236L31 12.9236L31 9.92358L2 9.92358L2 12.9236Z" fill="#E21312"/>
</svg>
