<svg width="56" height="60" viewBox="0 0 56 60" fill="none" xmlns="http://www.w3.org/2000/svg">
<path d="M25.087 2.34011C25.9781 1.85318 26.9807 1.59766 28 1.59766C29.0193 1.59766 30.0219 1.85318 30.913 2.34011L53.458 14.6608C53.9254 14.9166 54.3148 15.2906 54.586 15.7442C54.8571 16.1978 55 16.7145 55 17.2407V41.5486C54.9997 42.6013 54.7134 43.6348 54.1706 44.5421C53.6278 45.4493 52.8484 46.1972 51.913 46.7083L30.913 58.1907C30.0219 58.6776 29.0193 58.9331 28 58.9331C26.9807 58.9331 25.9781 58.6776 25.087 58.1907L4.087 46.7083C3.15207 46.1974 2.3729 45.45 1.83014 44.5433C1.28739 43.6367 1.00079 42.6038 1 41.5515V17.2407C0.999978 16.7145 1.14293 16.1978 1.41405 15.7442C1.68516 15.2906 2.07459 14.9166 2.542 14.6608L25.09 2.34011H25.087Z" stroke="white" stroke-width="2" stroke-linecap="round" stroke-linejoin="round"/>
<path d="M28 30.2639V59.7817M1 15.505L28 30.2639L1 15.505ZM28 30.2639L55 15.505L28 30.2639Z" stroke="white" stroke-width="2" stroke-linejoin="round"/>
<path d="M14.5 22.8845L41.5 8.12561" stroke="white" stroke-width="2" stroke-linecap="round" stroke-linejoin="round"/>
<path d="M10 31.2321L19 36.1674" stroke="white" stroke-width="2" stroke-linecap="round" stroke-linejoin="round"/>
</svg>
