<svg width="20" height="22" viewBox="0 0 20 22" fill="none" xmlns="http://www.w3.org/2000/svg">
<g clip-path="url(#clip0_427_1389)">
<path d="M16.8566 2.34061C17.199 1.98111 17.6644 1.77722 18.151 1.77349C18.6376 1.76976 19.1058 1.9665 19.4533 2.32072C19.8009 2.67493 19.9994 3.15781 20.0057 3.66383C20.0119 4.16985 19.8253 4.65786 19.4866 5.02121L9.68657 17.7625C9.51822 17.951 9.31506 18.1023 9.08923 18.2074C8.8634 18.3124 8.61954 18.3691 8.37219 18.3739C8.12485 18.3788 7.8791 18.3317 7.64962 18.2356C7.42015 18.1395 7.21165 17.9963 7.03657 17.8145L0.539071 11.0597C0.193793 10.7004 -0.000117157 10.2133 5.31056e-08 9.7053C0.000117263 9.19735 0.194252 8.71025 0.539696 8.35116C0.885141 7.99207 1.3536 7.7904 1.84201 7.79052C2.33043 7.79065 2.79879 7.99255 3.14407 8.35181L8.28282 13.6974L16.8078 2.40041C16.8233 2.37985 16.84 2.36032 16.8578 2.34191L16.8566 2.34061Z" fill="white"/>
</g>
<defs>
<clipPath id="clip0_427_1389">
<rect width="20" height="20.8" fill="white" transform="translate(0 0.480225)"/>
</clipPath>
</defs>
</svg>
