<svg width="29" height="27" viewBox="0 0 29 27" fill="none" xmlns="http://www.w3.org/2000/svg">
<path d="M2.33984 19.125V22.5H11.6998V20.3738H4.56284V19.125C4.56284 18.405 8.22494 16.7625 11.6998 16.7625C12.823 16.7738 13.9345 16.92 15.0109 17.19L16.7893 15.48C15.1513 14.9513 13.4548 14.6588 11.6998 14.625C8.57594 14.625 2.33984 16.1213 2.33984 19.125ZM11.6998 4.5C9.11414 4.5 7.01984 6.51375 7.01984 9C7.01984 11.4863 9.11414 13.5 11.6998 13.5C14.2855 13.5 16.3798 11.4863 16.3798 9C16.3798 6.51375 14.2855 4.5 11.6998 4.5ZM11.6998 11.25C10.4128 11.25 9.35984 10.2488 9.35984 9C9.35984 7.75125 10.4128 6.75 11.6998 6.75C12.9868 6.75 14.0398 7.7625 14.0398 9C14.0398 10.2375 12.9985 11.25 11.6998 11.25ZM25.3888 15.0188L24.2188 16.1438L21.8203 13.8938L22.9903 12.7688C23.1106 12.6554 23.2724 12.5919 23.4408 12.5919C23.6092 12.5919 23.771 12.6554 23.8912 12.7688L25.3888 14.2088C25.6345 14.445 25.6345 14.8388 25.3888 15.075V15.0188ZM14.0398 21.3075L21.13 14.49L23.5285 16.74L16.5085 23.5688H14.0398V21.3075Z" fill="#E21312"/>
</svg>
