<svg width="58" height="49" viewBox="0 0 58 49" fill="none" xmlns="http://www.w3.org/2000/svg">
<path d="M20.261 5.06142L18.1846 5.59062C16.3327 6.06192 14.6787 6.97045 13.4173 8.20923C12.156 9.44801 11.3399 10.9655 11.0651 12.5829C10.2038 17.6495 12.1294 23.5736 16.7723 30.3675C21.4036 37.1442 26.5018 41.5101 32.1133 43.4211C33.9163 44.035 35.8901 44.1986 37.7999 43.8924C39.7098 43.5862 41.4754 42.8231 42.8868 41.6938L44.4615 40.4345C45.4817 39.6181 46.1164 38.5166 46.2476 37.3346C46.3789 36.1526 45.9977 34.9706 45.1749 34.0082L41.2425 29.4022C40.7109 28.7803 39.9622 28.3147 39.1015 28.0704C38.2408 27.8261 37.3112 27.8155 36.443 28.04L30.4951 29.5761L30.3414 29.6006C29.686 29.6815 28.1751 28.4834 26.2901 25.7247C24.3181 22.8386 23.9063 21.1506 24.4515 20.7145L27.4791 18.3306C28.5847 17.4593 29.3398 16.3174 29.6383 15.0651C29.9368 13.8129 29.7639 12.5131 29.1437 11.3481L27.2297 7.74417C26.6523 6.65859 25.627 5.78765 24.3452 5.29397C23.0633 4.8003 21.6126 4.71764 20.2639 5.06142H20.261ZM24.582 8.74867L26.4989 12.3526C26.8717 13.0514 26.9759 13.8314 26.797 14.5828C26.6181 15.3342 26.165 16.0194 25.5013 16.5421L22.4679 18.9284C20.5249 20.4793 21.1687 23.1326 23.7758 26.9497C26.2321 30.5414 28.4709 32.3152 30.875 32.0065L31.2346 31.9428L37.2898 30.3822C37.5793 30.3071 37.8893 30.3104 38.1764 30.3917C38.4635 30.473 38.7132 30.6281 38.8906 30.8354L42.823 35.4414C43.2348 35.9227 43.4256 36.514 43.36 37.1053C43.2944 37.6966 42.9768 38.2476 42.4663 38.6558L40.8916 39.9151C39.8834 40.7212 38.6225 41.2659 37.2587 41.4843C35.8948 41.7028 34.4854 41.5859 33.1979 41.1475C28.2737 39.4717 23.6192 35.4855 19.2837 29.1425C14.9395 22.7847 13.1821 17.3776 13.9361 12.9308C14.1323 11.7752 14.7153 10.691 15.6165 9.80591C16.5177 8.92085 17.6995 8.27182 19.0227 7.93527L21.102 7.40607C21.7762 7.23493 22.501 7.27678 23.1413 7.52381C23.7816 7.77084 24.2936 8.20619 24.582 8.74867Z" fill="#E21312"/>
</svg>
