<svg width="71" height="71" viewBox="0 0 71 71" fill="none" xmlns="http://www.w3.org/2000/svg">
<path d="M35.5 66.5625C27.2617 66.5625 19.3608 63.2899 13.5355 57.4645C7.71015 51.6392 4.4375 43.7383 4.4375 35.5C4.4375 27.2617 7.71015 19.3608 13.5355 13.5355C19.3608 7.71015 27.2617 4.4375 35.5 4.4375C43.7383 4.4375 51.6392 7.71015 57.4645 13.5355C63.2899 19.3608 66.5625 27.2617 66.5625 35.5C66.5625 43.7383 63.2899 51.6392 57.4645 57.4645C51.6392 63.2899 43.7383 66.5625 35.5 66.5625ZM35.5 71C44.9152 71 53.9448 67.2598 60.6023 60.6023C67.2598 53.9448 71 44.9152 71 35.5C71 26.0848 67.2598 17.0553 60.6023 10.3977C53.9448 3.74017 44.9152 0 35.5 0C26.0848 0 17.0553 3.74017 10.3977 10.3977C3.74017 17.0553 0 26.0848 0 35.5C0 44.9152 3.74017 53.9448 10.3977 60.6023C17.0553 67.2598 26.0848 71 35.5 71Z" fill="#E21312"/>
<path d="M48.6808 22.0543C48.6491 22.085 48.6195 22.1176 48.592 22.152L33.1806 41.7879L23.8929 32.4958C23.262 31.9079 22.4275 31.5879 21.5653 31.6031C20.7031 31.6183 19.8805 31.9676 19.2707 32.5773C18.6609 33.1871 18.3116 34.0097 18.2964 34.872C18.2812 35.7342 18.6012 36.5686 19.1891 37.1995L30.9308 48.9456C31.2471 49.2613 31.6237 49.5101 32.0383 49.6771C32.4528 49.8441 32.8968 49.9259 33.3436 49.9177C33.7905 49.9094 34.2311 49.8112 34.6392 49.6289C35.0472 49.4467 35.4144 49.1841 35.7188 48.8568L53.4333 26.7137C54.0365 26.0806 54.3663 25.2356 54.3514 24.3613C54.3365 23.4869 53.9781 22.6536 53.3537 22.0414C52.7293 21.4293 51.889 21.0874 51.0146 21.0899C50.1401 21.0923 49.3018 21.4387 48.6808 22.0543Z" fill="#E21312"/>
</svg>
