<svg width="43" height="40" viewBox="0 0 43 40" fill="none" xmlns="http://www.w3.org/2000/svg">
<path d="M34.0417 16.666H8.95833C6.97931 16.666 5.375 18.1584 5.375 19.9993V33.3327C5.375 35.1736 6.97931 36.666 8.95833 36.666H34.0417C36.0207 36.666 37.625 35.1736 37.625 33.3327V19.9993C37.625 18.1584 36.0207 16.666 34.0417 16.666Z" stroke="#E21312" stroke-width="3" stroke-linecap="round" stroke-linejoin="round"/>
<path d="M10.75 10C10.75 8.67392 11.3163 7.40215 12.3243 6.46447C13.3323 5.52678 14.6995 5 16.125 5H26.875C28.3005 5 29.6677 5.52678 30.6757 6.46447C31.6837 7.40215 32.25 8.67392 32.25 10V16.6667H10.75V10Z" stroke="#E21312" stroke-width="3" stroke-linecap="round" stroke-linejoin="round"/>
</svg>
