<svg width="28" height="42" viewBox="0 0 28 42" fill="none" xmlns="http://www.w3.org/2000/svg">
<path d="M21.8862 2.625C22.6118 2.625 23.3077 2.90156 23.8207 3.39384C24.3338 3.88613 24.622 4.55381 24.622 5.25V36.75C24.622 37.4462 24.3338 38.1139 23.8207 38.6062C23.3077 39.0984 22.6118 39.375 21.8862 39.375H5.47156C4.74599 39.375 4.05013 39.0984 3.53707 38.6062C3.02401 38.1139 2.73578 37.4462 2.73578 36.75V5.25C2.73578 4.55381 3.02401 3.88613 3.53707 3.39384C4.05013 2.90156 4.74599 2.625 5.47156 2.625H21.8862ZM5.47156 0C4.02041 0 2.6287 0.553123 1.60258 1.53769C0.576466 2.52226 0 3.85761 0 5.25V36.75C0 38.1424 0.576466 39.4777 1.60258 40.4623C2.6287 41.4469 4.02041 42 5.47156 42H21.8862C23.3374 42 24.7291 41.4469 25.7552 40.4623C26.7813 39.4777 27.3578 38.1424 27.3578 36.75V5.25C27.3578 3.85761 26.7813 2.52226 25.7552 1.53769C24.7291 0.553123 23.3374 0 21.8862 0L5.47156 0Z" fill="#E21312"/>
</svg>
