<svg width="40" height="40" viewBox="0 0 40 40" fill="none" xmlns="http://www.w3.org/2000/svg">
<path d="M3.33398 28.3332V33.3332H16.6673V30.1832H6.50065V28.3332C6.50065 27.2665 11.7173 24.8332 16.6673 24.8332C18.2673 24.8498 19.8507 25.0665 21.384 25.4665L23.9173 22.9332C21.584 22.1498 19.1673 21.7165 16.6673 21.6665C12.2173 21.6665 3.33398 23.8832 3.33398 28.3332ZM16.6673 6.6665C12.984 6.6665 10.0007 9.64984 10.0007 13.3332C10.0007 17.0165 12.984 19.9998 16.6673 19.9998C20.3507 19.9998 23.334 17.0165 23.334 13.3332C23.334 9.64984 20.3507 6.6665 16.6673 6.6665ZM16.6673 16.6665C14.834 16.6665 13.334 15.1832 13.334 13.3332C13.334 11.4832 14.834 9.99984 16.6673 9.99984C18.5007 9.99984 20.0007 11.4998 20.0007 13.3332C20.0007 15.1665 18.5173 16.6665 16.6673 16.6665ZM36.1673 22.2498L34.5007 23.9165L31.084 20.5832L32.7507 18.9165C32.922 18.7485 33.1524 18.6545 33.3923 18.6545C33.6323 18.6545 33.8626 18.7485 34.034 18.9165L36.1673 21.0498C36.5173 21.3998 36.5173 21.9832 36.1673 22.3332V22.2498ZM20.0007 31.5665L30.1007 21.4665L33.5173 24.7998L23.5173 34.9165H20.0007V31.5665Z" fill="#E21312"/>
</svg>
