<svg width="32" height="32" viewBox="0 0 32 32" fill="none" xmlns="http://www.w3.org/2000/svg">
<path d="M8 4C6.93913 4 5.92172 4.42143 5.17157 5.17157C4.42143 5.92172 4 6.93913 4 8V24C4 25.0609 4.42143 26.0783 5.17157 26.8284C5.92172 27.5786 6.93913 28 8 28H14.6667C15.0203 28 15.3594 27.8595 15.6095 27.6095C15.8595 27.3594 16 27.0203 16 26.6667C16 26.313 15.8595 25.9739 15.6095 25.7239C15.3594 25.4738 15.0203 25.3333 14.6667 25.3333H8C7.64638 25.3333 7.30724 25.1929 7.05719 24.9428C6.80714 24.6928 6.66667 24.3536 6.66667 24V8C6.66667 7.64638 6.80714 7.30724 7.05719 7.05719C7.30724 6.80714 7.64638 6.66667 8 6.66667H14.6667C15.0203 6.66667 15.3594 6.52619 15.6095 6.27614C15.8595 6.02609 16 5.68696 16 5.33333C16 4.97971 15.8595 4.64057 15.6095 4.39052C15.3594 4.14048 15.0203 4 14.6667 4H8Z" fill="#E21312"/>
<path d="M20.3907 9.72388C20.6407 9.47392 20.9798 9.3335 21.3333 9.3335C21.6869 9.3335 22.026 9.47392 22.276 9.72388L27.6093 15.0572C27.8593 15.3072 27.9997 15.6463 27.9997 15.9999C27.9997 16.3534 27.8593 16.6925 27.6093 16.9425L22.276 22.2759C22.0245 22.5188 21.6877 22.6531 21.3381 22.6501C20.9885 22.6471 20.6541 22.5068 20.4069 22.2596C20.1597 22.0124 20.0195 21.678 20.0164 21.3284C20.0134 20.9788 20.1478 20.642 20.3907 20.3905L23.448 17.3332H13.3333C12.9797 17.3332 12.6406 17.1927 12.3905 16.9427C12.1405 16.6926 12 16.3535 12 15.9999C12 15.6463 12.1405 15.3071 12.3905 15.0571C12.6406 14.807 12.9797 14.6665 13.3333 14.6665H23.448L20.3907 11.6092C20.1407 11.3592 20.0003 11.0201 20.0003 10.6665C20.0003 10.313 20.1407 9.97392 20.3907 9.72388Z" fill="#E21312"/>
</svg>
