<svg width="48" height="46" viewBox="0 0 48 46" fill="none" xmlns="http://www.w3.org/2000/svg">
<path d="M18.62 12.8604C18.4346 13.0377 18.2875 13.2483 18.1872 13.4802C18.0868 13.7121 18.0352 13.9606 18.0352 14.2117C18.0352 14.4627 18.0868 14.7112 18.1872 14.9431C18.2875 15.175 18.4346 15.3856 18.62 15.5629L26.38 22.9996L18.62 30.4362C18.2461 30.7946 18.036 31.2807 18.036 31.7875C18.036 32.2943 18.2461 32.7804 18.62 33.1387C18.994 33.4971 19.5012 33.6984 20.03 33.6984C20.5589 33.6984 21.0661 33.4971 21.44 33.1387L30.62 24.3412C30.8055 24.1639 30.9525 23.9533 31.0529 23.7214C31.1533 23.4896 31.2049 23.241 31.2049 22.99C31.2049 22.739 31.1533 22.4904 31.0529 22.2585C30.9525 22.0267 30.8055 21.8161 30.62 21.6387L21.44 12.8412C20.68 12.1129 19.4 12.1129 18.62 12.8604Z" fill="#E21312"/>
</svg>
