<svg width="34" height="34" viewBox="0 0 34 34" fill="none" xmlns="http://www.w3.org/2000/svg">
<path d="M29.7493 11.3331C30.5008 11.3331 31.2215 11.6316 31.7528 12.163C32.2842 12.6943 32.5827 13.415 32.5827 14.1664V19.8331C32.5827 20.5846 32.2842 21.3052 31.7528 21.8366C31.2215 22.3679 30.5008 22.6664 29.7493 22.6664H28.2448C27.8995 25.4053 26.5665 27.9239 24.496 29.7498C22.4255 31.5756 19.7599 32.5831 16.9993 32.5831V29.7498C19.2537 29.7498 21.4157 28.8542 23.0098 27.2602C24.6038 25.6661 25.4993 23.5041 25.4993 21.2498V12.7498C25.4993 10.4954 24.6038 8.33343 23.0098 6.73937C21.4157 5.14531 19.2537 4.24978 16.9993 4.24978C14.745 4.24978 12.583 5.14531 10.9889 6.73937C9.39488 8.33343 8.49935 10.4954 8.49935 12.7498V22.6664H4.24935C3.4979 22.6664 2.77723 22.3679 2.24588 21.8366C1.71453 21.3052 1.41602 20.5846 1.41602 19.8331V14.1664C1.41602 13.415 1.71453 12.6943 2.24588 12.163C2.77723 11.6316 3.4979 11.3331 4.24935 11.3331H5.75385C6.09956 8.59454 7.43271 6.07625 9.50316 4.25073C11.5736 2.42522 14.239 1.41797 16.9993 1.41797C19.7596 1.41797 22.4251 2.42522 24.4955 4.25073C26.566 6.07625 27.8991 8.59454 28.2448 11.3331H29.7493ZM10.9927 22.3619L12.4943 19.9592C13.8445 20.805 15.4061 21.2523 16.9993 21.2498C18.5926 21.2523 20.1542 20.805 21.5043 19.9592L23.006 22.3619C21.2058 23.4897 19.1237 24.0864 16.9993 24.0831C14.875 24.0864 12.7929 23.4897 10.9927 22.3619Z" fill="#E21312"/>
</svg>
