<svg width="50" height="50" viewBox="0 0 50 50" fill="none" xmlns="http://www.w3.org/2000/svg">
<path d="M39.5827 18.7498C39.5827 16.8347 39.2055 14.9384 38.4726 13.169C37.7397 11.3997 36.6655 9.79205 35.3113 8.43786C33.9571 7.08368 32.3495 6.00948 30.5802 5.27659C28.8108 4.54371 26.9145 4.1665 24.9993 4.1665C23.0842 4.1665 21.1879 4.54371 19.4185 5.27659C17.6492 6.00948 16.0416 7.08368 14.6874 8.43786C13.3332 9.79205 12.259 11.3997 11.5261 13.169C10.7932 14.9384 10.416 16.8347 10.416 18.7498C10.416 21.6394 11.2681 24.3269 12.7181 26.5936H12.7014L24.9993 45.8332L37.2973 26.5936H37.2827C38.7845 24.2531 39.5828 21.5307 39.5827 18.7498ZM24.9993 24.9998C23.3417 24.9998 21.752 24.3414 20.5799 23.1693C19.4078 21.9972 18.7493 20.4074 18.7493 18.7498C18.7493 17.0922 19.4078 15.5025 20.5799 14.3304C21.752 13.1583 23.3417 12.4998 24.9993 12.4998C26.657 12.4998 28.2467 13.1583 29.4188 14.3304C30.5909 15.5025 31.2494 17.0922 31.2494 18.7498C31.2494 20.4074 30.5909 21.9972 29.4188 23.1693C28.2467 24.3414 26.657 24.9998 24.9993 24.9998Z" fill="#E21312"/>
</svg>
