<svg width="74" height="74" viewBox="0 0 74 74" fill="none" xmlns="http://www.w3.org/2000/svg">
<path d="M33.9173 16.9582C33.918 19.5537 32.9832 22.0625 31.2843 24.0247C29.5854 25.9869 27.2362 27.2712 24.6673 27.6419V35.4582H43.9382C45.7781 35.4582 47.5427 34.7273 48.8437 33.4262C50.1448 32.1252 50.8757 30.3606 50.8757 28.5207V27.3028C48.3977 26.5559 46.2704 24.9439 44.8812 22.7602C43.492 20.5766 42.9333 17.9666 43.3069 15.4056C43.6805 12.8446 44.9615 10.503 46.9166 8.80726C48.8718 7.11148 51.3709 6.17435 53.959 6.16652C56.6907 6.1616 59.3227 7.19284 61.3239 9.05222C63.3252 10.9116 64.5468 13.4607 64.7424 16.1855C64.938 18.9102 64.093 21.6077 62.3779 23.7338C60.6627 25.86 58.2051 27.2566 55.5007 27.6419V28.5207C55.5007 31.5873 54.2825 34.5282 52.1141 36.6966C49.9457 38.865 47.0047 40.0832 43.9382 40.0832H24.6673V46.3578C27.3003 46.7378 29.7001 48.0769 31.406 50.1181C33.112 52.1592 34.004 54.7586 33.9107 57.4172C33.8174 60.0757 32.7455 62.6062 30.9006 64.5228C29.0558 66.4393 26.568 67.607 23.9149 67.8015C21.2619 67.9961 18.6304 67.2039 16.5257 65.5769C14.421 63.95 12.9914 61.603 12.5112 58.9865C12.0311 56.3699 12.5343 53.6683 13.9243 51.4001C15.3143 49.1319 17.493 47.457 20.0423 46.6969V27.3028C17.5644 26.5559 15.4371 24.9439 14.0479 22.7602C12.6587 20.5766 12.1 17.9666 12.4736 15.4056C12.8472 12.8446 14.1282 10.503 16.0833 8.80726C18.0384 7.11148 20.5376 6.17435 23.1257 6.16652C25.9878 6.16652 28.7327 7.3035 30.7565 9.32733C32.7804 11.3512 33.9173 14.0961 33.9173 16.9582ZM23.1257 23.1249C24.7612 23.1249 26.3297 22.4752 27.4862 21.3187C28.6426 20.1622 29.2923 18.5937 29.2923 16.9582C29.2923 15.3227 28.6426 13.7542 27.4862 12.5977C26.3297 11.4412 24.7612 10.7915 23.1257 10.7915C21.4902 10.7915 19.9217 11.4412 18.7652 12.5977C17.6087 13.7542 16.959 15.3227 16.959 16.9582C16.959 18.5937 17.6087 20.1622 18.7652 21.3187C19.9217 22.4752 21.4902 23.1249 23.1257 23.1249ZM53.959 23.1249C55.5945 23.1249 57.163 22.4752 58.3195 21.3187C59.476 20.1622 60.1257 18.5937 60.1257 16.9582C60.1257 15.3227 59.476 13.7542 58.3195 12.5977C57.163 11.4412 55.5945 10.7915 53.959 10.7915C52.3235 10.7915 50.755 11.4412 49.5985 12.5977C48.442 13.7542 47.7923 15.3227 47.7923 16.9582C47.7923 18.5937 48.442 20.1622 49.5985 21.3187C50.755 22.4752 52.3235 23.1249 53.959 23.1249ZM29.2923 57.0415C29.2923 55.406 28.6426 53.8375 27.4862 52.681C26.3297 51.5246 24.7612 50.8749 23.1257 50.8749C21.4902 50.8749 19.9217 51.5246 18.7652 52.681C17.6087 53.8375 16.959 55.406 16.959 57.0415C16.959 58.677 17.6087 60.2455 18.7652 61.402C19.9217 62.5585 21.4902 63.2082 23.1257 63.2082C24.7612 63.2082 26.3297 62.5585 27.4862 61.402C28.6426 60.2455 29.2923 58.677 29.2923 57.0415Z" fill="#E21312"/>
</svg>
