<svg width="40" height="41" viewBox="0 0 40 41" fill="none" xmlns="http://www.w3.org/2000/svg">
<path d="M18.446 4.97691C18.9213 4.70564 19.456 4.56329 19.9996 4.56329C20.5433 4.56329 21.0779 4.70564 21.5532 4.97691L33.5772 11.8408C33.8265 11.9833 34.0342 12.1917 34.1788 12.4444C34.3234 12.6971 34.3996 12.9849 34.3996 13.2781V26.8201C34.3995 27.4066 34.2468 27.9823 33.9573 28.4877C33.6678 28.9932 33.2521 29.4098 32.7532 29.6946L21.5532 36.0914C21.0779 36.3627 20.5433 36.5051 19.9996 36.5051C19.456 36.5051 18.9213 36.3627 18.446 36.0914L7.24601 29.6946C6.74738 29.41 6.33182 28.9936 6.04235 28.4885C5.75289 27.9834 5.60003 27.4079 5.59961 26.8217V13.2781C5.5996 12.9849 5.67584 12.6971 5.82043 12.4444C5.96503 12.1917 6.17272 11.9833 6.42201 11.8408L18.4476 4.97691H18.446Z" stroke="white" stroke-width="2" stroke-linecap="round" stroke-linejoin="round"/>
<path d="M19.9996 20.5333V36.9778M5.59961 12.3111L19.9996 20.5333L5.59961 12.3111ZM19.9996 20.5333L34.3996 12.3111L19.9996 20.5333Z" stroke="white" stroke-width="2" stroke-linejoin="round"/>
<path d="M12.7998 16.4222L27.1998 8.20001" stroke="white" stroke-width="2" stroke-linecap="round" stroke-linejoin="round"/>
<path d="M10.3994 21.0728L15.1994 23.8223" stroke="white" stroke-width="2" stroke-linecap="round" stroke-linejoin="round"/>
</svg>
