<svg width="90" height="90" viewBox="0 0 90 90" fill="none" xmlns="http://www.w3.org/2000/svg">
<path d="M41.3588 9.52501C42.4727 8.9064 43.7258 8.58179 45 8.58179C46.2742 8.58179 47.5273 8.9064 48.6412 9.52501L76.8225 25.1775C77.4068 25.5024 77.8935 25.9776 78.2324 26.5539C78.5713 27.1301 78.75 27.7865 78.75 28.455V59.3363C78.7497 60.6737 78.3917 61.9867 77.7133 63.1392C77.0348 64.2918 76.0605 65.2419 74.8913 65.8913L48.6412 80.4788C47.5273 81.0974 46.2742 81.422 45 81.422C43.7258 81.422 42.4727 81.0974 41.3588 80.4788L15.1087 65.8913C13.9401 65.2423 12.9661 64.2927 12.2877 63.1409C11.6092 61.989 11.251 60.6768 11.25 59.34V28.455C11.25 27.7865 11.4287 27.1301 11.7676 26.5539C12.1065 25.9776 12.5932 25.5024 13.1775 25.1775L41.3625 9.52501H41.3588Z" stroke="#E21312" stroke-width="2" stroke-linecap="round" stroke-linejoin="round"/>
<path d="M28.125 16.875L61.875 35.625V48.75" stroke="#E21312" stroke-width="2" stroke-linecap="round" stroke-linejoin="round"/>
<path d="M22.5 46.2299L33.75 52.4999" stroke="#E21312" stroke-width="2" stroke-linecap="round" stroke-linejoin="round"/>
<path d="M45 45V80.625M11.25 26.25L45 45L11.25 26.25ZM45 45L78.75 26.25L45 45Z" stroke="#E21312" stroke-width="2" stroke-linejoin="round"/>
</svg>
