<svg width="87" height="81" viewBox="0 0 87 81" fill="none" xmlns="http://www.w3.org/2000/svg">
<path d="M51.8878 25.457H61.7033C62.5248 25.4565 63.3284 25.6402 64.0144 25.9854C64.7005 26.3306 65.2387 26.8221 65.5624 27.3989L77.0557 47.8878V60.7054C77.0557 62.4051 76.1718 64.0352 74.5985 65.2371C73.0252 66.439 70.8914 67.1142 68.6664 67.1142H18.3307C16.1057 67.1142 13.9719 66.439 12.3986 65.2371C10.8253 64.0352 9.94141 62.4051 9.94141 60.7054V47.8878L21.4347 27.3989C21.7584 26.8221 22.2966 26.3306 22.9827 25.9854C23.6687 25.6402 24.4723 25.4565 25.2938 25.457H35.1093" stroke="#E21312" stroke-width="3" stroke-linecap="round" stroke-linejoin="round"/>
<path d="M31.0706 17.3573L43.4992 6.11759L55.9277 17.3573" stroke="#E21312" stroke-width="3" stroke-linecap="round" stroke-linejoin="round"/>
<path d="M43.498 5.78564L43.498 40.4999" stroke="#E21312" stroke-width="3" stroke-linecap="round" stroke-linejoin="round"/>
<path d="M11.1836 47.4427H27.03C28.0807 47.4427 29.0884 47.8491 29.8313 48.5725C30.5742 49.2958 30.9916 50.2769 30.9916 51.2999V55.157C30.9916 56.18 31.409 57.1611 32.152 57.8844C32.8949 58.6078 33.9026 59.0142 34.9532 59.0142H50.7997C51.8503 59.0142 52.858 58.6078 53.6009 57.8844C54.3439 57.1611 54.7613 56.18 54.7613 55.157V51.2999C54.7613 50.2769 55.1787 49.2958 55.9216 48.5725C56.6645 47.8491 57.6722 47.4427 58.7229 47.4427H74.5693" stroke="#E21312" stroke-width="3" stroke-linecap="round" stroke-linejoin="round"/>
</svg>
