<svg width="135" height="135" viewBox="0 0 135 135" fill="none" xmlns="http://www.w3.org/2000/svg">
<circle cx="67.5" cy="67.5" r="65" stroke="#E21312" stroke-width="5"/>
<circle cx="68" cy="68" r="51" stroke="#E21312" stroke-width="2"/>
<path d="M80.5781 84H76.0547V68.2266H58.8516V84H54.3516V49.875H58.8516V64.5469H76.0547V49.875H80.5781V84Z" fill="#E21312"/>
<path d="M80.5781 84V85H81.5781V84H80.5781ZM76.0547 84H75.0547V85H76.0547V84ZM76.0547 68.2266H77.0547V67.2266H76.0547V68.2266ZM58.8516 68.2266V67.2266H57.8516V68.2266H58.8516ZM58.8516 84V85H59.8516V84H58.8516ZM54.3516 84H53.3516V85H54.3516V84ZM54.3516 49.875V48.875H53.3516V49.875H54.3516ZM58.8516 49.875H59.8516V48.875H58.8516V49.875ZM58.8516 64.5469H57.8516V65.5469H58.8516V64.5469ZM76.0547 64.5469V65.5469H77.0547V64.5469H76.0547ZM76.0547 49.875V48.875H75.0547V49.875H76.0547ZM80.5781 49.875H81.5781V48.875H80.5781V49.875ZM80.5781 83H76.0547V85H80.5781V83ZM77.0547 84V68.2266H75.0547V84H77.0547ZM76.0547 67.2266H58.8516V69.2266H76.0547V67.2266ZM57.8516 68.2266V84H59.8516V68.2266H57.8516ZM58.8516 83H54.3516V85H58.8516V83ZM55.3516 84V49.875H53.3516V84H55.3516ZM54.3516 50.875H58.8516V48.875H54.3516V50.875ZM57.8516 49.875V64.5469H59.8516V49.875H57.8516ZM58.8516 65.5469H76.0547V63.5469H58.8516V65.5469ZM77.0547 64.5469V49.875H75.0547V64.5469H77.0547ZM76.0547 50.875H80.5781V48.875H76.0547V50.875ZM79.5781 49.875V84H81.5781V49.875H79.5781Z" fill="#E21312"/>
</svg>
