<svg width="31" height="31" viewBox="0 0 31 31" fill="none" xmlns="http://www.w3.org/2000/svg">
<path d="M5.61133 5.84351V25.6346C5.61133 26.2907 5.87246 26.9199 6.33728 27.3839C6.80211 27.8478 7.43254 28.1084 8.0899 28.1084H22.9613C23.6187 28.1084 24.2491 27.8478 24.7139 27.3839C25.1787 26.9199 25.4399 26.2907 25.4399 25.6346V11.2143C25.4398 10.8847 25.3738 10.5585 25.2457 10.2547C25.1176 9.95099 24.9299 9.67585 24.6938 9.44548L19.1914 4.07468C18.7284 3.62278 18.1065 3.36971 17.4589 3.36963H8.0899C7.43254 3.36963 6.80211 3.63027 6.33728 4.09421C5.87246 4.55815 5.61133 5.1874 5.61133 5.84351V5.84351Z" stroke="#E21312" stroke-width="2" stroke-linecap="round" stroke-linejoin="round"/>
<path d="M11.8086 16.9761H19.2443" stroke="#E21312" stroke-width="2" stroke-linecap="round" stroke-linejoin="round"/>
<path d="M11.8086 21.9238H15.5264" stroke="#E21312" stroke-width="2" stroke-linecap="round" stroke-linejoin="round"/>
<path d="M18.0039 3.36963V8.31739C18.0039 8.9735 18.265 9.60275 18.7299 10.0667C19.1947 10.5306 19.8251 10.7913 20.4825 10.7913H25.4396" stroke="#E21312" stroke-width="2" stroke-linejoin="round"/>
</svg>
