<svg width="38" height="38" viewBox="0 0 38 38" fill="none" xmlns="http://www.w3.org/2000/svg">
<path d="M19 0.625C8.85273 0.625 0.625 8.85273 0.625 19C0.625 29.1473 8.85273 37.375 19 37.375C29.1473 37.375 37.375 29.1473 37.375 19C37.375 8.85273 29.1473 0.625 19 0.625ZM25.784 25.9809L23.077 25.9686L19 21.1082L14.9271 25.9645L12.216 25.9768C12.0355 25.9768 11.8879 25.8332 11.8879 25.6486C11.8879 25.5707 11.9166 25.4969 11.9658 25.4354L17.302 19.0779L11.9658 12.7246C11.9163 12.6645 11.8888 12.5892 11.8879 12.5113C11.8879 12.3309 12.0355 12.1832 12.216 12.1832L14.9271 12.1955L19 17.0559L23.0729 12.1996L25.7799 12.1873C25.9604 12.1873 26.108 12.3309 26.108 12.5154C26.108 12.5934 26.0793 12.6672 26.0301 12.7287L20.7021 19.082L26.0342 25.4395C26.0834 25.501 26.1121 25.5748 26.1121 25.6527C26.1121 25.8332 25.9645 25.9809 25.784 25.9809Z" fill="#E21312"/>
</svg>
