<svg width="87" height="87" viewBox="0 0 87 87" fill="none" xmlns="http://www.w3.org/2000/svg">
<path d="M46.1092 39.1502C44.3692 38.7152 42.6292 37.8452 41.3242 36.5402C40.0192 36.1052 39.5842 34.8002 39.5842 33.9302C39.5842 33.0602 40.0192 31.7552 40.8892 31.3202C42.1942 30.4502 43.4992 29.5802 44.8042 30.0152C47.4142 30.0152 49.5892 31.3202 50.8942 33.0602L54.8092 27.8402C53.5042 26.5352 52.1992 25.6652 50.8942 24.7952C49.5892 23.9252 47.8492 23.4902 46.1092 23.4902V17.4002H40.8892V23.4902C38.7142 23.9252 36.5392 25.2302 34.7992 26.9702C33.0592 29.1452 31.7542 31.7552 32.1892 34.3652C32.1892 36.9752 33.0592 39.5852 34.7992 41.3252C36.9742 43.5002 40.0192 44.8052 42.6292 46.1102C43.9342 46.5452 45.6742 47.4152 46.9792 48.2852C47.8492 49.1552 48.2842 50.4602 48.2842 51.7652C48.2842 53.0702 47.8492 54.3752 46.9792 55.6802C45.6742 56.9852 43.9342 57.4202 42.6292 57.4202C40.8892 57.4202 38.7142 56.9852 37.4092 55.6802C36.1042 54.8102 34.7992 53.5052 33.9292 52.2002L29.5792 56.9852C30.8842 58.7252 32.1892 60.0302 33.9292 61.3352C36.1042 62.6402 38.7142 63.9452 41.3242 63.9452V69.6002H46.1092V63.0752C48.7192 62.6402 50.8942 61.3352 52.6342 59.5952C54.8092 57.4202 56.1142 53.9402 56.1142 50.8952C56.1142 48.2852 55.2442 45.2402 53.0692 43.5002C50.8942 41.3252 48.7192 40.0202 46.1092 39.1502ZM43.4992 8.7002C24.3592 8.7002 8.69922 24.3602 8.69922 43.5002C8.69922 62.6402 24.3592 78.3002 43.4992 78.3002C62.6392 78.3002 78.2992 62.6402 78.2992 43.5002C78.2992 24.3602 62.6392 8.7002 43.4992 8.7002ZM43.4992 73.5152C26.9692 73.5152 13.4842 60.0302 13.4842 43.5002C13.4842 26.9702 26.9692 13.4852 43.4992 13.4852C60.0292 13.4852 73.5142 26.9702 73.5142 43.5002C73.5142 60.0302 60.0292 73.5152 43.4992 73.5152Z" fill="#E21312"/>
</svg>
