<svg width="38" height="37" viewBox="0 0 38 37" fill="none" xmlns="http://www.w3.org/2000/svg">
<path d="M17.416 6.02441H6.33268C5.49283 6.02441 4.68738 6.34177 4.09351 6.90667C3.49965 7.47156 3.16602 8.23773 3.16602 9.03661V30.122C3.16602 30.9209 3.49965 31.687 4.09351 32.2519C4.68738 32.8168 5.49283 33.1342 6.33268 33.1342H28.4993C29.3392 33.1342 30.1447 32.8168 30.7385 32.2519C31.3324 31.687 31.666 30.9209 31.666 30.122V19.5793" stroke="#E21312" stroke-width="3" stroke-linecap="round" stroke-linejoin="round"/>
<path d="M29.291 3.76536C29.9209 3.1662 30.7752 2.82959 31.666 2.82959C32.5568 2.82959 33.4111 3.1662 34.041 3.76536C34.6709 4.36452 35.0248 5.17716 35.0248 6.02451C35.0248 6.87185 34.6709 7.68449 34.041 8.28365L18.9993 22.5916L12.666 24.0977L14.2493 18.0733L29.291 3.76536Z" stroke="#E21312" stroke-width="3" stroke-linecap="round" stroke-linejoin="round"/>
</svg>
