<svg width="38" height="38" viewBox="0 0 38 38" fill="none" xmlns="http://www.w3.org/2000/svg">
<g clip-path="url(#clip0_501_529)">
<path d="M35.625 28.5C35.625 29.1299 35.3748 29.734 34.9294 30.1794C34.484 30.6248 33.8799 30.875 33.25 30.875H4.75C4.12011 30.875 3.51602 30.6248 3.07062 30.1794C2.62522 29.734 2.375 29.1299 2.375 28.5V14.25C2.375 13.6201 2.62522 13.016 3.07062 12.5706C3.51602 12.1252 4.12011 11.875 4.75 11.875H7.5335C9.42219 11.874 11.2332 11.1231 12.5685 9.78737L14.5398 7.82087C14.9839 7.37661 15.5859 7.12639 16.2141 7.125H21.7811C22.411 7.12513 23.015 7.37545 23.4603 7.82087L25.4268 9.78737C26.0885 10.4493 26.8742 10.9744 27.7389 11.3326C28.6037 11.6908 29.5305 11.8751 30.4665 11.875H33.25C33.8799 11.875 34.484 12.1252 34.9294 12.5706C35.3748 13.016 35.625 13.6201 35.625 14.25V28.5ZM4.75 9.5C3.49022 9.5 2.28204 10.0004 1.39124 10.8912C0.500445 11.782 0 12.9902 0 14.25L0 28.5C0 29.7598 0.500445 30.968 1.39124 31.8588C2.28204 32.7496 3.49022 33.25 4.75 33.25H33.25C34.5098 33.25 35.718 32.7496 36.6088 31.8588C37.4996 30.968 38 29.7598 38 28.5V14.25C38 12.9902 37.4996 11.782 36.6088 10.8912C35.718 10.0004 34.5098 9.5 33.25 9.5H30.4665C29.2068 9.49973 27.9988 8.99911 27.1082 8.10825L25.1418 6.14175C24.2512 5.25089 23.0432 4.75027 21.7835 4.75H16.2165C14.9568 4.75027 13.7488 5.25089 12.8582 6.14175L10.8918 8.10825C10.0012 8.99911 8.79317 9.49973 7.5335 9.5H4.75Z" fill="#E21312"/>
<path d="M19 26.125C17.4253 26.125 15.9151 25.4994 14.8016 24.3859C13.6881 23.2724 13.0625 21.7622 13.0625 20.1875C13.0625 18.6128 13.6881 17.1026 14.8016 15.9891C15.9151 14.8756 17.4253 14.25 19 14.25C20.5747 14.25 22.0849 14.8756 23.1984 15.9891C24.3119 17.1026 24.9375 18.6128 24.9375 20.1875C24.9375 21.7622 24.3119 23.2724 23.1984 24.3859C22.0849 25.4994 20.5747 26.125 19 26.125ZM19 28.5C21.2046 28.5 23.3189 27.6242 24.8778 26.0653C26.4367 24.5064 27.3125 22.3921 27.3125 20.1875C27.3125 17.9829 26.4367 15.8686 24.8778 14.3097C23.3189 12.7508 21.2046 11.875 19 11.875C16.7954 11.875 14.6811 12.7508 13.1222 14.3097C11.5633 15.8686 10.6875 17.9829 10.6875 20.1875C10.6875 22.3921 11.5633 24.5064 13.1222 26.0653C14.6811 27.6242 16.7954 28.5 19 28.5ZM7.125 15.4375C7.125 15.7524 6.99989 16.0545 6.77719 16.2772C6.55449 16.4999 6.25244 16.625 5.9375 16.625C5.62256 16.625 5.32051 16.4999 5.09781 16.2772C4.87511 16.0545 4.75 15.7524 4.75 15.4375C4.75 15.1226 4.87511 14.8205 5.09781 14.5978C5.32051 14.3751 5.62256 14.25 5.9375 14.25C6.25244 14.25 6.55449 14.3751 6.77719 14.5978C6.99989 14.8205 7.125 15.1226 7.125 15.4375Z" fill="#E21312"/>
</g>
<defs>
<clipPath id="clip0_501_529">
<rect width="38" height="38" fill="white"/>
</clipPath>
</defs>
</svg>
