<svg width="27" height="27" viewBox="0 0 27 27" fill="none" xmlns="http://www.w3.org/2000/svg">
<path d="M13.4997 3.8335C14.7816 3.8335 16.0109 4.34272 16.9174 5.24915C17.8238 6.15557 18.333 7.38495 18.333 8.66683C18.333 9.94871 17.8238 11.1781 16.9174 12.0845C16.0109 12.9909 14.7816 13.5002 13.4997 13.5002C12.2178 13.5002 10.9884 12.9909 10.082 12.0845C9.17557 11.1781 8.66634 9.94871 8.66634 8.66683C8.66634 7.38495 9.17557 6.15557 10.082 5.24915C10.9884 4.34272 12.2178 3.8335 13.4997 3.8335ZM13.4997 6.25016C12.8587 6.25016 12.244 6.50478 11.7908 6.95799C11.3376 7.4112 11.083 8.02589 11.083 8.66683C11.083 9.30777 11.3376 9.92246 11.7908 10.3757C12.244 10.8289 12.8587 11.0835 13.4997 11.0835C14.1406 11.0835 14.7553 10.8289 15.2085 10.3757C15.6617 9.92246 15.9163 9.30777 15.9163 8.66683C15.9163 8.02589 15.6617 7.4112 15.2085 6.95799C14.7553 6.50478 14.1406 6.25016 13.4997 6.25016ZM13.4997 14.7085C16.7259 14.7085 23.1663 16.3156 23.1663 19.5418V23.1668H3.83301V19.5418C3.83301 16.3156 10.2734 14.7085 13.4997 14.7085ZM13.4997 17.0043C9.91092 17.0043 6.12884 18.7685 6.12884 19.5418V20.871H20.8705V19.5418C20.8705 18.7685 17.0884 17.0043 13.4997 17.0043Z" fill="#E21312"/>
</svg>
