<svg width="17" height="10" viewBox="0 0 17 10" fill="none" xmlns="http://www.w3.org/2000/svg">
<path d="M16.2142 0.576872C16.0793 0.441679 15.919 0.334422 15.7426 0.261241C15.5662 0.18806 15.377 0.150391 15.186 0.150391C14.9951 0.150391 14.8059 0.18806 14.6295 0.261241C14.4531 0.334422 14.2928 0.441679 14.1579 0.576872L8.49959 6.2352L2.84126 0.576872C2.56858 0.304196 2.19876 0.151008 1.81313 0.151008C1.42751 0.151008 1.05768 0.304196 0.785007 0.576872C0.512331 0.849547 0.359146 1.21937 0.359146 1.605C0.359146 1.99062 0.512331 2.36045 0.785007 2.63312L7.47876 9.32687C7.61367 9.46206 7.77393 9.56932 7.95035 9.6425C8.12677 9.71568 8.31589 9.75335 8.50688 9.75335C8.69788 9.75335 8.887 9.71568 9.06342 9.6425C9.23984 9.56932 9.40009 9.46206 9.53501 9.32687L16.2288 2.63312C16.7829 2.07895 16.7829 1.14562 16.2142 0.576872Z" fill="white"/>
</svg>
