<svg width="10" height="17" viewBox="0 0 10 17" fill="none" xmlns="http://www.w3.org/2000/svg">
<path d="M0.576872 0.785825C0.441679 0.920741 0.334422 1.081 0.261241 1.25741C0.18806 1.43383 0.150391 1.62295 0.150391 1.81395C0.150391 2.00495 0.18806 2.19407 0.261241 2.37049C0.334422 2.5469 0.441679 2.70716 0.576872 2.84208L6.2352 8.50041L0.576872 14.1587C0.304196 14.4314 0.151008 14.8012 0.151008 15.1869C0.151008 15.5725 0.304196 15.9423 0.576872 16.215C0.849547 16.4877 1.21937 16.6409 1.605 16.6409C1.99062 16.6409 2.36045 16.4877 2.63312 16.215L9.32687 9.52124C9.46206 9.38633 9.56932 9.22607 9.6425 9.04965C9.71568 8.87323 9.75335 8.68411 9.75335 8.49312C9.75335 8.30212 9.71568 8.113 9.6425 7.93658C9.56932 7.76016 9.46206 7.59991 9.32687 7.46499L2.63312 0.771242C2.07895 0.217075 1.14562 0.217075 0.576872 0.785825Z" fill="white"/>
</svg>
