<svg width="27" height="26" viewBox="0 0 27 26" fill="none" xmlns="http://www.w3.org/2000/svg">
<path d="M23.625 8.66664C24.2217 8.66664 24.794 8.89491 25.216 9.30124C25.6379 9.70757 25.875 10.2587 25.875 10.8333V15.1666C25.875 15.7413 25.6379 16.2924 25.216 16.6987C24.794 17.105 24.2217 17.3333 23.625 17.3333H22.4302C22.156 19.4277 21.0974 21.3537 19.4532 22.75C17.809 24.1462 15.6922 24.9166 13.5 24.9166V22.75C15.2902 22.75 17.0071 22.0652 18.273 20.8462C19.5388 19.6272 20.25 17.9739 20.25 16.25V9.74997C20.25 8.02606 19.5388 6.37277 18.273 5.15378C17.0071 3.93479 15.2902 3.24997 13.5 3.24997C11.7098 3.24997 9.9929 3.93479 8.72703 5.15378C7.46116 6.37277 6.75 8.02606 6.75 9.74997V17.3333H3.375C2.77826 17.3333 2.20597 17.105 1.78401 16.6987C1.36205 16.2924 1.125 15.7413 1.125 15.1666V10.8333C1.125 10.2587 1.36205 9.70757 1.78401 9.30124C2.20597 8.89491 2.77826 8.66664 3.375 8.66664H4.56975C4.84428 6.57244 5.90296 4.64668 7.54714 3.25071C9.19132 1.85473 11.308 1.08447 13.5 1.08447C15.692 1.08447 17.8087 1.85473 19.4529 3.25071C21.097 4.64668 22.1557 6.57244 22.4302 8.66664H23.625ZM8.73 17.1004L9.9225 15.2631C10.9947 15.9098 12.2348 16.2519 13.5 16.25C14.7652 16.2519 16.0053 15.9098 17.0775 15.2631L18.27 17.1004C16.8404 17.9629 15.187 18.4191 13.5 18.4166C11.813 18.4191 10.1596 17.9629 8.73 17.1004Z" fill="#222222"/>
</svg>
