<svg width="27" height="27" viewBox="0 0 27 27" fill="none" xmlns="http://www.w3.org/2000/svg">
<path d="M23.625 8.99977C24.2217 8.99977 24.794 9.23682 25.216 9.65878C25.6379 10.0807 25.875 10.653 25.875 11.2498V15.7498C25.875 16.3465 25.6379 16.9188 25.216 17.3408C24.794 17.7627 24.2217 17.9998 23.625 17.9998H22.4302C22.156 20.1747 21.0974 22.1748 19.4532 23.6248C17.809 25.0747 15.6922 25.8747 13.5 25.8748V23.6248C15.2902 23.6248 17.0071 22.9136 18.273 21.6477C19.5388 20.3819 20.25 18.665 20.25 16.8748V10.1248C20.25 8.33455 19.5388 6.61767 18.273 5.3518C17.0071 4.08592 15.2902 3.37477 13.5 3.37477C11.7098 3.37477 9.9929 4.08592 8.72703 5.3518C7.46116 6.61767 6.75 8.33455 6.75 10.1248V17.9998H3.375C2.77826 17.9998 2.20597 17.7627 1.78401 17.3408C1.36205 16.9188 1.125 16.3465 1.125 15.7498V11.2498C1.125 10.653 1.36205 10.0807 1.78401 9.65878C2.20597 9.23682 2.77826 8.99977 3.375 8.99977H4.56975C4.84428 6.82502 5.90296 4.8252 7.54714 3.37553C9.19132 1.92585 11.308 1.12598 13.5 1.12598C15.692 1.12598 17.8087 1.92585 19.4529 3.37553C21.097 4.8252 22.1557 6.82502 22.4302 8.99977H23.625ZM8.73 17.7579L9.9225 15.8499C10.9947 16.5216 12.2348 16.8768 13.5 16.8748C14.7652 16.8768 16.0053 16.5216 17.0775 15.8499L18.27 17.7579C16.8404 18.6536 15.187 19.1274 13.5 19.1248C11.813 19.1274 10.1596 18.6536 8.73 17.7579Z" fill="#E21312"/>
</svg>
