<svg width="26" height="26" viewBox="0 0 26 26" fill="none" xmlns="http://www.w3.org/2000/svg">
<path fill-rule="evenodd" clip-rule="evenodd" d="M3.25 21.9375V11.375H4.875V21.9375C4.875 22.153 4.9606 22.3597 5.11298 22.512C5.26535 22.6644 5.47201 22.75 5.6875 22.75H20.3125C20.528 22.75 20.7347 22.6644 20.887 22.512C21.0394 22.3597 21.125 22.153 21.125 21.9375V11.375H22.75V21.9375C22.75 22.584 22.4932 23.204 22.0361 23.6611C21.579 24.1182 20.959 24.375 20.3125 24.375H5.6875C5.04103 24.375 4.42105 24.1182 3.96393 23.6611C3.50681 23.204 3.25 22.584 3.25 21.9375ZM21.125 4.0625V9.75L17.875 6.5V4.0625C17.875 3.84701 17.9606 3.64035 18.113 3.48798C18.2653 3.3356 18.472 3.25 18.6875 3.25H20.3125C20.528 3.25 20.7347 3.3356 20.887 3.48798C21.0394 3.64035 21.125 3.84701 21.125 4.0625Z" fill="#222222"/>
<path fill-rule="evenodd" clip-rule="evenodd" d="M11.8522 2.4372C12.1569 2.13256 12.5701 1.96143 13.001 1.96143C13.4319 1.96143 13.8452 2.13256 14.1499 2.4372L24.9513 13.237C25.1038 13.3895 25.1896 13.5964 25.1896 13.8122C25.1896 14.028 25.1038 14.2349 24.9513 14.3875C24.7987 14.54 24.5918 14.6257 24.376 14.6257C24.1603 14.6257 23.9533 14.54 23.8008 14.3875L13.001 3.58608L2.20128 14.3875C2.04871 14.54 1.84179 14.6257 1.62603 14.6257C1.41027 14.6257 1.20334 14.54 1.05078 14.3875C0.898211 14.2349 0.8125 14.028 0.8125 13.8122C0.8125 13.5964 0.898211 13.3895 1.05078 13.237L11.8522 2.4372Z" fill="#222222"/>
</svg>
