<svg width="26" height="26" viewBox="0 0 26 26" fill="none" xmlns="http://www.w3.org/2000/svg">
<path d="M21.125 1.625H24.375V4.875H21.125V1.625Z" fill="black"/>
<path d="M21.125 6.5H24.375V9.75H21.125V6.5Z" fill="black"/>
<path d="M16.25 1.625H19.5V4.875H16.25V1.625Z" fill="black"/>
<path d="M16.25 6.5H19.5V9.75H16.25V6.5Z" fill="black"/>
<path d="M22.75 13V17.875H3.25V4.875H13V3.25H3.25C2.81902 3.25 2.4057 3.4212 2.10095 3.72595C1.7962 4.0307 1.625 4.44402 1.625 4.875V17.875C1.625 18.306 1.7962 18.7193 2.10095 19.024C2.4057 19.3288 2.81902 19.5 3.25 19.5H9.75V22.75H6.5V24.375H19.5V22.75H16.25V19.5H22.75C23.181 19.5 23.5943 19.3288 23.899 19.024C24.2038 18.7193 24.375 18.306 24.375 17.875V13H22.75ZM14.625 22.75H11.375V19.5H14.625V22.75Z" fill="black"/>
</svg>
