<svg width="27" height="27" viewBox="0 0 27 27" fill="none" xmlns="http://www.w3.org/2000/svg">
<path d="M7.875 7.875C7.875 7.27826 8.11205 6.70597 8.53401 6.28401C8.95597 5.86205 9.52826 5.625 10.125 5.625H16.875C17.4717 5.625 18.044 5.86205 18.466 6.28401C18.8879 6.70597 19.125 7.27826 19.125 7.875V9C19.125 9.59674 18.8879 10.169 18.466 10.591C18.044 11.0129 17.4717 11.25 16.875 11.25H10.125C9.52826 11.25 8.95597 11.0129 8.53401 10.591C8.11205 10.169 7.875 9.59674 7.875 9V7.875ZM10.125 7.3125C9.97581 7.3125 9.83274 7.37176 9.72725 7.47725C9.62176 7.58274 9.5625 7.72582 9.5625 7.875V9C9.5625 9.14919 9.62176 9.29226 9.72725 9.39775C9.83274 9.50324 9.97581 9.5625 10.125 9.5625H16.875C17.0242 9.5625 17.1673 9.50324 17.2727 9.39775C17.3782 9.29226 17.4375 9.14919 17.4375 9V7.875C17.4375 7.72582 17.3782 7.58274 17.2727 7.47725C17.1673 7.37176 17.0242 7.3125 16.875 7.3125H10.125ZM9.28125 16.3125C9.65421 16.3125 10.0119 16.1643 10.2756 15.9006C10.5393 15.6369 10.6875 15.2792 10.6875 14.9063C10.6875 14.5333 10.5393 14.1756 10.2756 13.9119C10.0119 13.6482 9.65421 13.5 9.28125 13.5C8.90829 13.5 8.5506 13.6482 8.28688 13.9119C8.02316 14.1756 7.875 14.5333 7.875 14.9063C7.875 15.2792 8.02316 15.6369 8.28688 15.9006C8.5506 16.1643 8.90829 16.3125 9.28125 16.3125ZM10.6875 19.4063C10.6875 19.7792 10.5393 20.1369 10.2756 20.4006C10.0119 20.6643 9.65421 20.8125 9.28125 20.8125C8.90829 20.8125 8.5506 20.6643 8.28688 20.4006C8.02316 20.1369 7.875 19.7792 7.875 19.4063C7.875 19.0333 8.02316 18.6756 8.28688 18.4119C8.5506 18.1482 8.90829 18 9.28125 18C9.65421 18 10.0119 18.1482 10.2756 18.4119C10.5393 18.6756 10.6875 19.0333 10.6875 19.4063ZM17.7187 16.3125C18.0917 16.3125 18.4494 16.1643 18.7131 15.9006C18.9768 15.6369 19.125 15.2792 19.125 14.9063C19.125 14.5333 18.9768 14.1756 18.7131 13.9119C18.4494 13.6482 18.0917 13.5 17.7187 13.5C17.3458 13.5 16.9881 13.6482 16.7244 13.9119C16.4607 14.1756 16.3125 14.5333 16.3125 14.9063C16.3125 15.2792 16.4607 15.6369 16.7244 15.9006C16.9881 16.1643 17.3458 16.3125 17.7187 16.3125ZM19.125 19.4063C19.125 19.7792 18.9768 20.1369 18.7131 20.4006C18.4494 20.6643 18.0917 20.8125 17.7187 20.8125C17.3458 20.8125 16.9881 20.6643 16.7244 20.4006C16.4607 20.1369 16.3125 19.7792 16.3125 19.4063C16.3125 19.0333 16.4607 18.6756 16.7244 18.4119C16.9881 18.1482 17.3458 18 17.7187 18C18.0917 18 18.4494 18.1482 18.7131 18.4119C18.9768 18.6756 19.125 19.0333 19.125 19.4063ZM13.5 16.3125C13.873 16.3125 14.2306 16.1643 14.4944 15.9006C14.7581 15.6369 14.9062 15.2792 14.9062 14.9063C14.9062 14.5333 14.7581 14.1756 14.4944 13.9119C14.2306 13.6482 13.873 13.5 13.5 13.5C13.127 13.5 12.7694 13.6482 12.5056 13.9119C12.2419 14.1756 12.0937 14.5333 12.0937 14.9063C12.0937 15.2792 12.2419 15.6369 12.5056 15.9006C12.7694 16.1643 13.127 16.3125 13.5 16.3125ZM14.9062 19.4063C14.9062 19.7792 14.7581 20.1369 14.4944 20.4006C14.2306 20.6643 13.873 20.8125 13.5 20.8125C13.127 20.8125 12.7694 20.6643 12.5056 20.4006C12.2419 20.1369 12.0937 19.7792 12.0937 19.4063C12.0937 19.0333 12.2419 18.6756 12.5056 18.4119C12.7694 18.1482 13.127 18 13.5 18C13.873 18 14.2306 18.1482 14.4944 18.4119C14.7581 18.6756 14.9062 19.0333 14.9062 19.4063ZM8.15625 2.25C7.18655 2.25 6.25657 2.63521 5.57089 3.32089C4.88521 4.00657 4.5 4.93655 4.5 5.90625V21.0938C4.5 21.5739 4.59457 22.0493 4.77832 22.4929C4.96206 22.9365 5.23138 23.3396 5.57089 23.6791C5.9104 24.0186 6.31347 24.2879 6.75706 24.4717C7.20066 24.6554 7.6761 24.75 8.15625 24.75H18.8437C19.3239 24.75 19.7993 24.6554 20.2429 24.4717C20.6865 24.2879 21.0896 24.0186 21.4291 23.6791C21.7686 23.3396 22.0379 22.9365 22.2217 22.4929C22.4054 22.0493 22.5 21.5739 22.5 21.0938V5.90625C22.5 4.93655 22.1148 4.00657 21.4291 3.32089C20.7434 2.63521 19.8134 2.25 18.8437 2.25H8.15625ZM6.1875 5.90625C6.1875 4.8195 7.0695 3.9375 8.15625 3.9375H18.8437C19.9305 3.9375 20.8125 4.8195 20.8125 5.90625V21.0938C20.8125 21.6159 20.6051 22.1167 20.2359 22.4859C19.8667 22.8551 19.3659 23.0625 18.8437 23.0625H8.15625C7.6341 23.0625 7.13335 22.8551 6.76413 22.4859C6.39492 22.1167 6.1875 21.6159 6.1875 21.0938V5.90625Z" fill="#E21312"/>
</svg>
