<svg width="35" height="35" viewBox="0 0 35 35" fill="none" xmlns="http://www.w3.org/2000/svg">
<path d="M17.5 32.8125C13.4389 32.8125 9.54408 31.1992 6.67243 28.3276C3.80078 25.4559 2.1875 21.5611 2.1875 17.5C2.1875 13.4389 3.80078 9.54408 6.67243 6.67243C9.54408 3.80078 13.4389 2.1875 17.5 2.1875C21.5611 2.1875 25.4559 3.80078 28.3276 6.67243C31.1992 9.54408 32.8125 13.4389 32.8125 17.5C32.8125 21.5611 31.1992 25.4559 28.3276 28.3276C25.4559 31.1992 21.5611 32.8125 17.5 32.8125ZM17.5 35C22.1413 35 26.5925 33.1563 29.8744 29.8744C33.1563 26.5925 35 22.1413 35 17.5C35 12.8587 33.1563 8.40752 29.8744 5.12563C26.5925 1.84374 22.1413 0 17.5 0C12.8587 0 8.40752 1.84374 5.12563 5.12563C1.84374 8.40752 0 12.8587 0 17.5C0 22.1413 1.84374 26.5925 5.12563 29.8744C8.40752 33.1563 12.8587 35 17.5 35Z" fill="#E21312"/>
<path d="M17.5 29.5312C14.3091 29.5312 11.2489 28.2637 8.99262 26.0074C6.73632 23.7511 5.46875 20.6909 5.46875 17.5C5.46875 14.3091 6.73632 11.2489 8.99262 8.99262C11.2489 6.73632 14.3091 5.46875 17.5 5.46875C20.6909 5.46875 23.7511 6.73632 26.0074 8.99262C28.2637 11.2489 29.5312 14.3091 29.5312 17.5C29.5312 20.6909 28.2637 23.7511 26.0074 26.0074C23.7511 28.2637 20.6909 29.5312 17.5 29.5312ZM17.5 30.625C19.2236 30.625 20.9303 30.2855 22.5227 29.6259C24.1151 28.9663 25.562 27.9995 26.7808 26.7808C27.9995 25.562 28.9663 24.1151 29.6259 22.5227C30.2855 20.9303 30.625 19.2236 30.625 17.5C30.625 15.7764 30.2855 14.0697 29.6259 12.4773C28.9663 10.8849 27.9995 9.43799 26.7808 8.21922C25.562 7.00045 24.1151 6.03367 22.5227 5.37408C20.9303 4.71449 19.2236 4.375 17.5 4.375C14.019 4.375 10.6806 5.75781 8.21922 8.21922C5.75781 10.6806 4.375 14.019 4.375 17.5C4.375 20.981 5.75781 24.3194 8.21922 26.7808C10.6806 29.2422 14.019 30.625 17.5 30.625Z" fill="#E21312"/>
<path d="M21.4336 22H20.02V17.0708H14.644V22H13.2378V11.3359H14.644V15.9209H20.02V11.3359H21.4336V22Z" fill="#E21312"/>
</svg>
