<svg width="48" height="48" viewBox="0 0 48 48" fill="none" xmlns="http://www.w3.org/2000/svg">
<path d="M22.0796 34.5601C15.1676 34.5601 9.59961 28.9921 9.59961 22.0801C9.59961 15.1681 15.1676 9.6001 22.0796 9.6001C28.9916 9.6001 34.5596 15.1681 34.5596 22.0801C34.5596 28.9921 28.9916 34.5601 22.0796 34.5601ZM22.0796 11.5201C16.2236 11.5201 11.5196 16.2241 11.5196 22.0801C11.5196 27.9361 16.2236 32.6401 22.0796 32.6401C27.9356 32.6401 32.6396 27.9361 32.6396 22.0801C32.6396 16.2241 27.9356 11.5201 22.0796 11.5201Z" fill="#ABABAB"/>
<path d="M31.375 30.0161L39.9958 38.6369L38.6384 39.9944L30.0176 31.3736L31.375 30.0161Z" fill="#ABABAB"/>
</svg>
