<svg width="121" height="121" viewBox="0 0 121 121" fill="none" xmlns="http://www.w3.org/2000/svg">
<path d="M48.4 66.55C48.4 68.1545 47.7625 69.6934 46.6279 70.828C45.4934 71.9626 43.9545 72.6 42.35 72.6C40.7454 72.6 39.2066 71.9626 38.072 70.828C36.9374 69.6934 36.3 68.1545 36.3 66.55C36.3 64.9454 36.9374 63.4066 38.072 62.272C39.2066 61.1374 40.7454 60.5 42.35 60.5C43.9545 60.5 45.4934 61.1374 46.6279 62.272C47.7625 63.4066 48.4 64.9454 48.4 66.55ZM48.4 84.7C48.4 86.3045 47.7625 87.8434 46.6279 88.978C45.4934 90.1126 43.9545 90.75 42.35 90.75C40.7454 90.75 39.2066 90.1126 38.072 88.978C36.9374 87.8434 36.3 86.3045 36.3 84.7C36.3 83.0954 36.9374 81.5566 38.072 80.422C39.2066 79.2874 40.7454 78.65 42.35 78.65C43.9545 78.65 45.4934 79.2874 46.6279 80.422C47.7625 81.5566 48.4 83.0954 48.4 84.7ZM78.65 72.6C80.2545 72.6 81.7934 71.9626 82.928 70.828C84.0625 69.6934 84.7 68.1545 84.7 66.55C84.7 64.9454 84.0625 63.4066 82.928 62.272C81.7934 61.1374 80.2545 60.5 78.65 60.5C77.0454 60.5 75.5066 61.1374 74.372 62.272C73.2374 63.4066 72.6 64.9454 72.6 66.55C72.6 68.1545 73.2374 69.6934 74.372 70.828C75.5066 71.9626 77.0454 72.6 78.65 72.6ZM84.7 84.7C84.7 86.3045 84.0625 87.8434 82.928 88.978C81.7934 90.1126 80.2545 90.75 78.65 90.75C77.0454 90.75 75.5066 90.1126 74.372 88.978C73.2374 87.8434 72.6 86.3045 72.6 84.7C72.6 83.0954 73.2374 81.5566 74.372 80.422C75.5066 79.2874 77.0454 78.65 78.65 78.65C80.2545 78.65 81.7934 79.2874 82.928 80.422C84.0625 81.5566 84.7 83.0954 84.7 84.7ZM60.5 72.6C62.1045 72.6 63.6434 71.9626 64.778 70.828C65.9125 69.6934 66.55 68.1545 66.55 66.55C66.55 64.9454 65.9125 63.4066 64.778 62.272C63.6434 61.1374 62.1045 60.5 60.5 60.5C58.8954 60.5 57.3566 61.1374 56.222 62.272C55.0874 63.4066 54.45 64.9454 54.45 66.55C54.45 68.1545 55.0874 69.6934 56.222 70.828C57.3566 71.9626 58.8954 72.6 60.5 72.6ZM66.55 84.7C66.55 86.3045 65.9125 87.8434 64.778 88.978C63.6434 90.1126 62.1045 90.75 60.5 90.75C58.8954 90.75 57.3566 90.1126 56.222 88.978C55.0874 87.8434 54.45 86.3045 54.45 84.7C54.45 83.0954 55.0874 81.5566 56.222 80.422C57.3566 79.2874 58.8954 78.65 60.5 78.65C62.1045 78.65 63.6434 79.2874 64.778 80.422C65.9125 81.5566 66.55 83.0954 66.55 84.7ZM45.375 24.2C42.9681 24.2 40.6599 25.1561 38.958 26.858C37.2561 28.5599 36.3 30.8681 36.3 33.275V39.325C36.3 41.7318 37.2561 44.0401 38.958 45.742C40.6599 47.4439 42.9681 48.4 45.375 48.4H75.625C78.0318 48.4 80.3401 47.4439 82.042 45.742C83.7438 44.0401 84.7 41.7318 84.7 39.325V33.275C84.7 30.8681 83.7438 28.5599 82.042 26.858C80.3401 25.1561 78.0318 24.2 75.625 24.2H45.375ZM42.35 33.275C42.35 32.4727 42.6687 31.7033 43.236 31.136C43.8033 30.5687 44.5727 30.25 45.375 30.25H75.625C76.4272 30.25 77.1967 30.5687 77.764 31.136C78.3313 31.7033 78.65 32.4727 78.65 33.275V39.325C78.65 40.1273 78.3313 40.8967 77.764 41.464C77.1967 42.0313 76.4272 42.35 75.625 42.35H45.375C44.5727 42.35 43.8033 42.0313 43.236 41.464C42.6687 40.8967 42.35 40.1273 42.35 39.325V33.275ZM96.8 93.775C96.8 97.7864 95.2064 101.633 92.3699 104.47C89.5335 107.306 85.6864 108.9 81.675 108.9H39.325C35.3136 108.9 31.4664 107.306 28.63 104.47C25.7935 101.633 24.2 97.7864 24.2 93.775V27.225C24.2 23.2136 25.7935 19.3665 28.63 16.53C31.4664 13.6935 35.3136 12.1 39.325 12.1H81.675C85.6864 12.1 89.5335 13.6935 92.3699 16.53C95.2064 19.3665 96.8 23.2136 96.8 27.225V93.775ZM90.75 27.225C90.75 24.8181 89.7938 22.5099 88.092 20.808C86.3901 19.1061 84.0818 18.15 81.675 18.15H39.325C36.9181 18.15 34.6098 19.1061 32.908 20.808C31.2061 22.5099 30.25 24.8181 30.25 27.225V93.775C30.25 96.1818 31.2061 98.4901 32.908 100.192C34.6098 101.894 36.9181 102.85 39.325 102.85H81.675C84.0818 102.85 86.3901 101.894 88.092 100.192C89.7938 98.4901 90.75 96.1818 90.75 93.775V27.225Z" fill="#E21312"/>
</svg>
