<svg width="108" height="108" viewBox="0 0 108 108" fill="none" xmlns="http://www.w3.org/2000/svg">
<path d="M33.75 40.1625C37.8474 39.3261 41.4883 36.9981 43.9668 33.6299C46.4453 30.2616 47.5849 26.093 47.1646 21.9323C46.7443 17.7716 44.794 13.9152 41.6919 11.1107C38.5898 8.30619 34.5569 6.75342 30.375 6.75342C26.1932 6.75342 22.1602 8.30619 19.0581 11.1107C15.9561 13.9152 14.0058 17.7716 13.5855 21.9323C13.1652 26.093 14.3047 30.2616 16.7832 33.6299C19.2618 36.9981 22.9026 39.3261 27 40.1625V67.8375C22.9026 68.6739 19.2618 71.0018 16.7832 74.3701C14.3047 77.7383 13.1652 81.9069 13.5855 86.0676C14.0058 90.2283 15.9561 94.0848 19.0581 96.8893C22.1602 99.6938 26.1932 101.247 30.375 101.247C34.5569 101.247 38.5898 99.6938 41.6919 96.8893C44.794 94.0848 46.7443 90.2283 47.1646 86.0676C47.5849 81.9069 46.4453 77.7383 43.9668 74.3701C41.4883 71.0018 37.8474 68.6739 33.75 67.8375V60.75H64.125C66.3411 60.75 68.5355 60.3135 70.5828 59.4654C72.6302 58.6174 74.4905 57.3744 76.0575 55.8074C77.6245 54.2404 78.8675 52.3801 79.7155 50.3328C80.5636 48.2854 81 46.091 81 43.875V40.1625C85.0974 39.3261 88.7383 36.9981 91.2168 33.6299C93.6953 30.2616 94.8349 26.093 94.4146 21.9323C93.9943 17.7716 92.044 13.9152 88.9419 11.1107C85.8398 8.30619 81.8069 6.75342 77.625 6.75342C73.4432 6.75342 69.4102 8.30619 66.3081 11.1107C63.2061 13.9152 61.2558 17.7716 60.8355 21.9323C60.4152 26.093 61.5547 30.2616 64.0332 33.6299C66.5118 36.9981 70.1526 39.3261 74.25 40.1625V43.875C74.25 46.5603 73.1833 49.1356 71.2845 51.0344C69.3857 52.9332 66.8104 54 64.125 54H33.75V40.1625ZM30.375 33.75C29.0454 33.75 27.7288 33.4881 26.5004 32.9793C25.2719 32.4704 24.1558 31.7246 23.2156 30.7844C22.2754 29.8442 21.5296 28.7281 21.0208 27.4996C20.5119 26.2712 20.25 24.9546 20.25 23.625C20.25 22.2953 20.5119 20.9787 21.0208 19.7503C21.5296 18.5219 22.2754 17.4057 23.2156 16.4655C24.1558 15.5253 25.2719 14.7795 26.5004 14.2707C27.7288 13.7619 29.0454 13.5 30.375 13.5C33.0604 13.5 35.6357 14.5667 37.5345 16.4655C39.4333 18.3643 40.5 20.9397 40.5 23.625C40.5 26.3103 39.4333 28.8856 37.5345 30.7844C35.6357 32.6832 33.0604 33.75 30.375 33.75ZM77.625 33.75C76.2954 33.75 74.9788 33.4881 73.7504 32.9793C72.5219 32.4704 71.4058 31.7246 70.4656 30.7844C69.5254 29.8442 68.7796 28.7281 68.2708 27.4996C67.7619 26.2712 67.5 24.9546 67.5 23.625C67.5 22.2953 67.7619 20.9787 68.2708 19.7503C68.7796 18.5219 69.5254 17.4057 70.4656 16.4655C71.4058 15.5253 72.5219 14.7795 73.7504 14.2707C74.9788 13.7619 76.2954 13.5 77.625 13.5C80.3104 13.5 82.8857 14.5667 84.7845 16.4655C86.6833 18.3643 87.75 20.9397 87.75 23.625C87.75 26.3103 86.6833 28.8856 84.7845 30.7844C82.8857 32.6832 80.3104 33.75 77.625 33.75ZM40.5 84.375C40.5 87.0603 39.4333 89.6356 37.5345 91.5344C35.6357 93.4332 33.0604 94.5 30.375 94.5C27.6897 94.5 25.1144 93.4332 23.2156 91.5344C21.3168 89.6356 20.25 87.0603 20.25 84.375C20.25 81.6897 21.3168 79.1143 23.2156 77.2155C25.1144 75.3167 27.6897 74.25 30.375 74.25C33.0604 74.25 35.6357 75.3167 37.5345 77.2155C39.4333 79.1143 40.5 81.6897 40.5 84.375Z" fill="#E21312"/>
</svg>
