<svg width="14" height="9" viewBox="0 0 14 9" fill="none" xmlns="http://www.w3.org/2000/svg">
<path d="M13.1709 0.861693C13.063 0.753539 12.9348 0.667733 12.7937 0.609188C12.6525 0.550643 12.5012 0.520508 12.3484 0.520508C12.1957 0.520508 12.0444 0.550643 11.9032 0.609188C11.7621 0.667733 11.6339 0.753539 11.5259 0.861693L6.99928 5.38836L2.47262 0.861693C2.25448 0.643552 1.95861 0.521002 1.65012 0.521002C1.34162 0.521002 1.04576 0.643552 0.827616 0.861693C0.609475 1.07983 0.486927 1.3757 0.486927 1.68419C0.486927 1.99269 0.609475 2.28855 0.827616 2.50669L6.18262 7.86169C6.29055 7.96985 6.41875 8.05565 6.55989 8.1142C6.70102 8.17274 6.85232 8.20288 7.00512 8.20288C7.15791 8.20288 7.30921 8.17274 7.45034 8.1142C7.59148 8.05565 7.71968 7.96985 7.82762 7.86169L13.1826 2.50669C13.6259 2.06336 13.6259 1.31669 13.1709 0.861693Z" fill="#E21312"/>
</svg>
