<svg width="9" height="14" viewBox="0 0 9 14" fill="none" xmlns="http://www.w3.org/2000/svg">
<path d="M0.862669 0.828318C0.754515 0.936251 0.66871 1.06445 0.610165 1.20559C0.55162 1.34673 0.521484 1.49802 0.521484 1.65082C0.521484 1.80361 0.55162 1.95491 0.610165 2.09605C0.66871 2.23718 0.754515 2.36539 0.862669 2.47332L5.38933 6.99998L0.862669 11.5267C0.644529 11.7448 0.521978 12.0407 0.521978 12.3491C0.521978 12.6576 0.644529 12.9535 0.862669 13.1717C1.08081 13.3898 1.37667 13.5123 1.68517 13.5123C1.99367 13.5123 2.28953 13.3898 2.50767 13.1717L7.86267 7.81665C7.97082 7.70872 8.05663 7.58051 8.11517 7.43938C8.17372 7.29824 8.20385 7.14695 8.20385 6.99415C8.20385 6.84135 8.17372 6.69006 8.11517 6.54892C8.05663 6.40779 7.97082 6.27958 7.86267 6.17165L2.50767 0.816651C2.06434 0.373318 1.31767 0.373318 0.862669 0.828318Z" fill="#E21312"/>
</svg>
