<?xml version="1.0" standalone="no"?>
<!DOCTYPE svg PUBLIC "-//W3C//DTD SVG 20010904//EN"
 "http://www.w3.org/TR/2001/REC-SVG-20010904/DTD/svg10.dtd">
<svg version="1.0" xmlns="http://www.w3.org/2000/svg"
 width="42.000000pt" height="42.000000pt" viewBox="0 0 42.000000 42.000000"
 preserveAspectRatio="xMidYMid meet">
<metadata>
Created by potrace 1.16, written by Peter Selinger 2001-2019
</metadata>
<g transform="translate(0.000000,42.000000) scale(0.100000,-0.100000)"
fill="#000000" stroke="none">
<path d="M134 395 c-10 -15 -15 -38 -12 -59 l4 -34 -58 -12 -58 -13 0 -113 0
-113 83 -26 c104 -31 129 -31 233 1 l85 27 -3 110 -3 111 -55 16 c-50 15 -55
19 -52 43 1 15 -4 40 -13 57 -15 28 -19 30 -75 30 -52 0 -61 -3 -76 -25z"/>
</g>
</svg>
