<svg width="56" height="56" viewBox="0 0 56 56" fill="none" xmlns="http://www.w3.org/2000/svg">
<path d="M21.6426 27.532C21.6426 28.1783 21.3675 28.7981 20.8779 29.2551C20.3882 29.7121 19.7242 29.9688 19.0317 29.9688C18.3393 29.9688 17.6752 29.7121 17.1856 29.2551C16.696 28.7981 16.4209 28.1783 16.4209 27.532C16.4209 26.8857 16.696 26.2658 17.1856 25.8088C17.6752 25.3518 18.3393 25.0951 19.0317 25.0951C19.7242 25.0951 20.3882 25.3518 20.8779 25.8088C21.3675 26.2658 21.6426 26.8857 21.6426 27.532ZM21.6426 34.8426C21.6426 35.4889 21.3675 36.1087 20.8779 36.5657C20.3882 37.0227 19.7242 37.2795 19.0317 37.2795C18.3393 37.2795 17.6752 37.0227 17.1856 36.5657C16.696 36.1087 16.4209 35.4889 16.4209 34.8426C16.4209 34.1963 16.696 33.5765 17.1856 33.1195C17.6752 32.6625 18.3393 32.4057 19.0317 32.4057C19.7242 32.4057 20.3882 32.6625 20.8779 33.1195C21.3675 33.5765 21.6426 34.1963 21.6426 34.8426ZM34.6967 29.9688C35.3892 29.9688 36.0532 29.7121 36.5429 29.2551C37.0325 28.7981 37.3076 28.1783 37.3076 27.532C37.3076 26.8857 37.0325 26.2658 36.5429 25.8088C36.0532 25.3518 35.3892 25.0951 34.6967 25.0951C34.0043 25.0951 33.3402 25.3518 32.8506 25.8088C32.361 26.2658 32.0859 26.8857 32.0859 27.532C32.0859 28.1783 32.361 28.7981 32.8506 29.2551C33.3402 29.7121 34.0043 29.9688 34.6967 29.9688ZM37.3076 34.8426C37.3076 35.4889 37.0325 36.1087 36.5429 36.5657C36.0532 37.0227 35.3892 37.2795 34.6967 37.2795C34.0043 37.2795 33.3402 37.0227 32.8506 36.5657C32.361 36.1087 32.0859 35.4889 32.0859 34.8426C32.0859 34.1963 32.361 33.5765 32.8506 33.1195C33.3402 32.6625 34.0043 32.4057 34.6967 32.4057C35.3892 32.4057 36.0532 32.6625 36.5429 33.1195C37.0325 33.5765 37.3076 34.1963 37.3076 34.8426ZM26.8642 29.9688C27.5567 29.9688 28.2207 29.7121 28.7104 29.2551C29.2 28.7981 29.4751 28.1783 29.4751 27.532C29.4751 26.8857 29.2 26.2658 28.7104 25.8088C28.2207 25.3518 27.5567 25.0951 26.8642 25.0951C26.1718 25.0951 25.5077 25.3518 25.0181 25.8088C24.5285 26.2658 24.2534 26.8857 24.2534 27.532C24.2534 28.1783 24.5285 28.7981 25.0181 29.2551C25.5077 29.7121 26.1718 29.9688 26.8642 29.9688ZM29.4751 34.8426C29.4751 35.4889 29.2 36.1087 28.7104 36.5657C28.2207 37.0227 27.5567 37.2795 26.8642 37.2795C26.1718 37.2795 25.5077 37.0227 25.0181 36.5657C24.5285 36.1087 24.2534 35.4889 24.2534 34.8426C24.2534 34.1963 24.5285 33.5765 25.0181 33.1195C25.5077 32.6625 26.1718 32.4057 26.8642 32.4057C27.5567 32.4057 28.2207 32.6625 28.7104 33.1195C29.2 33.5765 29.4751 34.1963 29.4751 34.8426ZM20.3371 10.4738C19.2985 10.4738 18.3024 10.859 17.5679 11.5445C16.8335 12.23 16.4209 13.1597 16.4209 14.1292V16.566C16.4209 17.5355 16.8335 18.4652 17.5679 19.1507C18.3024 19.8362 19.2985 20.2213 20.3371 20.2213H33.3913C34.43 20.2213 35.4261 19.8362 36.1605 19.1507C36.8949 18.4652 37.3076 17.5355 37.3076 16.566V14.1292C37.3076 13.1597 36.8949 12.23 36.1605 11.5445C35.4261 10.859 34.43 10.4738 33.3913 10.4738H20.3371ZM19.0317 14.1292C19.0317 13.806 19.1693 13.4961 19.4141 13.2676C19.6589 13.0391 19.9909 12.9107 20.3371 12.9107H33.3913C33.7375 12.9107 34.0696 13.0391 34.3144 13.2676C34.5592 13.4961 34.6967 13.806 34.6967 14.1292V16.566C34.6967 16.8892 34.5592 17.1991 34.3144 17.4276C34.0696 17.6561 33.7375 17.7845 33.3913 17.7845H20.3371C19.9909 17.7845 19.6589 17.6561 19.4141 17.4276C19.1693 17.1991 19.0317 16.8892 19.0317 16.566V14.1292ZM42.5292 38.4979C42.5292 40.1137 41.8415 41.6632 40.6175 42.8057C39.3934 43.9482 37.7332 44.5901 36.0021 44.5901H17.7263C15.9952 44.5901 14.335 43.9482 13.111 42.8057C11.8869 41.6632 11.1992 40.1137 11.1992 38.4979V11.6923C11.1992 10.0765 11.8869 8.52696 13.111 7.38446C14.335 6.24195 15.9952 5.6001 17.7263 5.6001H36.0021C37.7332 5.6001 39.3934 6.24195 40.6175 7.38446C41.8415 8.52696 42.5292 10.0765 42.5292 11.6923V38.4979ZM39.9184 11.6923C39.9184 10.7228 39.5058 9.79309 38.7713 9.10759C38.0369 8.42209 37.0408 8.03697 36.0021 8.03697H17.7263C16.6876 8.03697 15.6915 8.42209 14.9571 9.10759C14.2227 9.79309 13.8101 10.7228 13.8101 11.6923V38.4979C13.8101 39.4674 14.2227 40.3971 14.9571 41.0826C15.6915 41.7681 16.6876 42.1532 17.7263 42.1532H36.0021C37.0408 42.1532 38.0369 41.7681 38.7713 41.0826C39.5058 40.3971 39.9184 39.4674 39.9184 38.4979V11.6923Z" fill="#222222"/>
</svg>
