<svg width="43" height="43" viewBox="0 0 43 43" fill="none" xmlns="http://www.w3.org/2000/svg">
<path d="M22.7908 19.35C21.9308 19.135 21.0708 18.705 20.4258 18.06C19.7808 17.845 19.5658 17.2 19.5658 16.77C19.5658 16.34 19.7808 15.695 20.2108 15.48C20.8558 15.05 21.5008 14.62 22.1458 14.835C23.4358 14.835 24.5108 15.48 25.1558 16.34L27.0908 13.76C26.4458 13.115 25.8008 12.685 25.1558 12.255C24.5108 11.825 23.6508 11.61 22.7908 11.61V8.59999H20.2108V11.61C19.1358 11.825 18.0608 12.47 17.2008 13.33C16.3408 14.405 15.6958 15.695 15.9108 16.985C15.9108 18.275 16.3408 19.565 17.2008 20.425C18.2758 21.5 19.7808 22.145 21.0708 22.79C21.7158 23.005 22.5758 23.435 23.2208 23.865C23.6508 24.295 23.8658 24.94 23.8658 25.585C23.8658 26.23 23.6508 26.875 23.2208 27.52C22.5758 28.165 21.7158 28.38 21.0708 28.38C20.2108 28.38 19.1358 28.165 18.4908 27.52C17.8458 27.09 17.2008 26.445 16.7708 25.8L14.6208 28.165C15.2658 29.025 15.9108 29.67 16.7708 30.315C17.8458 30.96 19.1358 31.605 20.4258 31.605V34.4H22.7908V31.175C24.0808 30.96 25.1558 30.315 26.0158 29.455C27.0908 28.38 27.7358 26.66 27.7358 25.155C27.7358 23.865 27.3058 22.36 26.2308 21.5C25.1558 20.425 24.0808 19.78 22.7908 19.35ZM21.5008 4.29999C12.0408 4.29999 4.30078 12.04 4.30078 21.5C4.30078 30.96 12.0408 38.7 21.5008 38.7C30.9608 38.7 38.7008 30.96 38.7008 21.5C38.7008 12.04 30.9608 4.29999 21.5008 4.29999ZM21.5008 36.335C13.3308 36.335 6.66578 29.67 6.66578 21.5C6.66578 13.33 13.3308 6.66499 21.5008 6.66499C29.6708 6.66499 36.3358 13.33 36.3358 21.5C36.3358 29.67 29.6708 36.335 21.5008 36.335Z" fill="black"/>
</svg>
