<svg width="35" height="40" viewBox="0 0 35 40" fill="none" xmlns="http://www.w3.org/2000/svg">
<path d="M15.7198 2.38717C16.2644 2.07753 16.8771 1.91504 17.5 1.91504C18.1229 1.91504 18.7356 2.07753 19.2802 2.38717L33.0577 10.2221C33.3433 10.3847 33.5813 10.6225 33.747 10.911C33.9127 11.1994 34 11.528 34 11.8626V27.3203C33.9998 27.9897 33.8249 28.647 33.4932 29.2239C33.1615 29.8008 32.6851 30.2764 32.1135 30.6014L19.2802 37.9032C18.7356 38.2128 18.1229 38.3753 17.5 38.3753C16.8771 38.3753 16.2644 38.2128 15.7198 37.9032L2.8865 30.6014C2.31515 30.2765 1.83899 29.8012 1.50731 29.2247C1.17563 28.6481 1.00048 27.9913 1 27.3222V11.8626C0.999987 11.528 1.08734 11.1994 1.25303 10.911C1.41871 10.6225 1.65669 10.3847 1.94233 10.2221L15.7217 2.38717H15.7198Z" stroke="#222222" stroke-width="2" stroke-linecap="round" stroke-linejoin="round"/>
<path d="M17.5 20.1446V38.9153M1 10.7592L17.5 20.1446L1 10.7592ZM17.5 20.1446L34 10.7592L17.5 20.1446Z" stroke="#222222" stroke-width="2" stroke-linejoin="round"/>
<path d="M9.25 15.4513L25.75 6.06592" stroke="#222222" stroke-width="2" stroke-linecap="round" stroke-linejoin="round"/>
<path d="M6.49805 20.7598L11.998 23.8982" stroke="#222222" stroke-width="2" stroke-linecap="round" stroke-linejoin="round"/>
</svg>
