<svg width="40" height="40" viewBox="0 0 40 40" fill="none" xmlns="http://www.w3.org/2000/svg">
<path d="M18.3327 9.16666C18.3331 10.5696 17.8278 11.9257 16.9094 12.9864C15.9911 14.0471 14.7213 14.7412 13.3327 14.9417V19.1667H23.7494C24.7439 19.1667 25.6978 18.7716 26.401 18.0683C27.1043 17.365 27.4994 16.4112 27.4994 15.4167V14.7583C26.1599 14.3546 25.01 13.4832 24.2591 12.3029C23.5082 11.1225 23.2062 9.71175 23.4081 8.32743C23.6101 6.94312 24.3025 5.67739 25.3593 4.76075C26.4162 3.84411 27.7671 3.33755 29.166 3.33332C30.6426 3.33066 32.0653 3.88809 33.1471 4.89316C34.2288 5.89823 34.8892 7.27614 34.9949 8.74896C35.1006 10.2218 34.6439 11.6799 33.7168 12.8292C32.7897 13.9785 31.4612 14.7334 29.9994 14.9417V15.4167C29.9994 17.0743 29.3409 18.664 28.1688 19.8361C26.9967 21.0082 25.407 21.6667 23.7494 21.6667H13.3327V25.0583C14.7559 25.2637 16.0531 25.9876 16.9752 27.0909C17.8974 28.1943 18.3795 29.5993 18.3291 31.0364C18.2787 32.4734 17.6993 33.8413 16.702 34.8772C15.7048 35.9132 14.3601 36.5444 12.926 36.6495C11.4919 36.7547 10.0695 36.3265 8.9318 35.4471C7.79412 34.5676 7.02135 33.299 6.76183 31.8846C6.5023 30.4703 6.77431 29.0099 7.52565 27.7839C8.27698 26.5578 9.45469 25.6525 10.8327 25.2417V14.7583C9.49325 14.3546 8.34335 13.4832 7.59244 12.3029C6.84152 11.1225 6.53953 9.71175 6.74147 8.32743C6.94341 6.94312 7.63585 5.67739 8.69268 4.76075C9.7495 3.84411 11.1004 3.33755 12.4994 3.33332C14.0465 3.33332 15.5302 3.9479 16.6242 5.04187C17.7181 6.13583 18.3327 7.61956 18.3327 9.16666ZM12.4994 12.5C13.3834 12.5 14.2313 12.1488 14.8564 11.5237C15.4815 10.8986 15.8327 10.0507 15.8327 9.16666C15.8327 8.2826 15.4815 7.43475 14.8564 6.80963C14.2313 6.18451 13.3834 5.83332 12.4994 5.83332C11.6153 5.83332 10.7675 6.18451 10.1423 6.80963C9.51722 7.43475 9.16603 8.2826 9.16603 9.16666C9.16603 10.0507 9.51722 10.8986 10.1423 11.5237C10.7675 12.1488 11.6153 12.5 12.4994 12.5ZM29.166 12.5C30.0501 12.5 30.8979 12.1488 31.5231 11.5237C32.1482 10.8986 32.4994 10.0507 32.4994 9.16666C32.4994 8.2826 32.1482 7.43475 31.5231 6.80963C30.8979 6.18451 30.0501 5.83332 29.166 5.83332C28.282 5.83332 27.4341 6.18451 26.809 6.80963C26.1839 7.43475 25.8327 8.2826 25.8327 9.16666C25.8327 10.0507 26.1839 10.8986 26.809 11.5237C27.4341 12.1488 28.282 12.5 29.166 12.5ZM15.8327 30.8333C15.8327 29.9493 15.4815 29.1014 14.8564 28.4763C14.2313 27.8512 13.3834 27.5 12.4994 27.5C11.6153 27.5 10.7675 27.8512 10.1423 28.4763C9.51722 29.1014 9.16603 29.9493 9.16603 30.8333C9.16603 31.7174 9.51722 32.5652 10.1423 33.1903C10.7675 33.8155 11.6153 34.1667 12.4994 34.1667C13.3834 34.1667 14.2313 33.8155 14.8564 33.1903C15.4815 32.5652 15.8327 31.7174 15.8327 30.8333Z" fill="black"/>
</svg>
