<svg width="116" height="116" viewBox="0 0 116 116" fill="none" xmlns="http://www.w3.org/2000/svg">
<path d="M61.48 52.2C59.16 51.62 56.84 50.46 55.1 48.72C53.36 48.14 52.78 46.4 52.78 45.24C52.78 44.08 53.36 42.34 54.52 41.76C56.26 40.6 58 39.44 59.74 40.02C63.22 40.02 66.12 41.76 67.86 44.08L73.08 37.12C71.34 35.38 69.6 34.22 67.86 33.06C66.12 31.9 63.8 31.32 61.48 31.32V23.2H54.52V31.32C51.62 31.9 48.72 33.64 46.4 35.96C44.08 38.86 42.34 42.34 42.92 45.82C42.92 49.3 44.08 52.78 46.4 55.1C49.3 58 53.36 59.74 56.84 61.48C58.58 62.06 60.9 63.22 62.64 64.38C63.8 65.54 64.38 67.28 64.38 69.02C64.38 70.76 63.8 72.5 62.64 74.24C60.9 75.98 58.58 76.56 56.84 76.56C54.52 76.56 51.62 75.98 49.88 74.24C48.14 73.08 46.4 71.34 45.24 69.6L39.44 75.98C41.18 78.3 42.92 80.04 45.24 81.78C48.14 83.52 51.62 85.26 55.1 85.26V92.8H61.48V84.1C64.96 83.52 67.86 81.78 70.18 79.46C73.08 76.56 74.82 71.92 74.82 67.86C74.82 64.38 73.66 60.32 70.76 58C67.86 55.1 64.96 53.36 61.48 52.2ZM58 11.6C32.48 11.6 11.6 32.48 11.6 58C11.6 83.52 32.48 104.4 58 104.4C83.52 104.4 104.4 83.52 104.4 58C104.4 32.48 83.52 11.6 58 11.6ZM58 98.02C35.96 98.02 17.98 80.04 17.98 58C17.98 35.96 35.96 17.98 58 17.98C80.04 17.98 98.02 35.96 98.02 58C98.02 80.04 80.04 98.02 58 98.02Z" fill="#E21312"/>
</svg>
