<svg width="89" height="34" viewBox="0 0 89 34" fill="none" xmlns="http://www.w3.org/2000/svg">
<g clip-path="url(#clip0_106_30)">
<path fill-rule="evenodd" clip-rule="evenodd" d="M0 17.3961C0 24.5592 5.41625 30.5156 12.5 31.7235V21.3174H8.75V17.3156H12.5V14.1135C12.5 10.5115 14.9163 8.51119 18.3337 8.51119C19.4163 8.51119 20.5837 8.67087 21.6663 8.83056V12.513H19.75C17.9163 12.513 17.5 13.3931 17.5 14.5145V17.3156H21.5L20.8337 21.3174H17.5V31.7235C24.5837 30.5156 30 24.5604 30 17.3961C30 9.42729 23.25 2.90771 15 2.90771C6.75 2.90771 0 9.42729 0 17.3961Z" fill="#222222"/>
</g>
<path d="M86.0833 12.0841V23.4892C86.0834 24.652 85.6202 25.7708 84.7888 26.616C83.9574 27.4612 82.8207 27.9688 81.612 28.0347L81.3437 28.0417H61.6562C60.4456 28.0417 59.2808 27.5969 58.4009 26.7983C57.5209 25.9996 56.9925 24.9079 56.9239 23.7469L56.9166 23.4892V12.0841L70.9925 19.1664C71.1491 19.2452 71.3232 19.2863 71.5 19.2863C71.6767 19.2863 71.8509 19.2452 72.0075 19.1664L86.0833 12.0841ZM61.6562 5.62939H81.3437C82.5185 5.62926 83.6515 6.04822 84.5229 6.80501C85.3944 7.56181 85.9421 8.6025 86.06 9.72524L71.5 17.0513L56.94 9.72524C57.053 8.64708 57.5627 7.64302 58.3775 6.89354C59.1923 6.14405 60.2587 5.69829 61.385 5.6364L61.6562 5.62939H81.3437H61.6562Z" fill="#222222"/>
<defs>
<clipPath id="clip0_106_30">
<rect width="30" height="28.8158" fill="white" transform="translate(0 2.90771)"/>
</clipPath>
</defs>
</svg>
