<svg width="90" height="87" viewBox="0 0 90 87" fill="none" xmlns="http://www.w3.org/2000/svg">
<ellipse cx="45" cy="43.3067" rx="45" ry="43.08" fill="#E21312"/>
<path d="M42.087 16.3402C42.9781 15.8532 43.9807 15.5977 45 15.5977C46.0193 15.5977 47.0219 15.8532 47.913 16.3402L70.458 28.6609C70.9254 28.9166 71.3148 29.2907 71.586 29.7443C71.8571 30.1979 72 30.7145 72 31.2407V55.5486C71.9997 56.6014 71.7134 57.6349 71.1706 58.5421C70.6278 59.4493 69.8484 60.1972 68.913 60.7083L47.913 72.1908C47.0219 72.6777 46.0193 72.9332 45 72.9332C43.9807 72.9332 42.9781 72.6777 42.087 72.1908L21.087 60.7083C20.1521 60.1975 19.3729 59.45 18.8301 58.5434C18.2874 57.6367 18.0008 56.6038 18 55.5516V31.2407C18 30.7145 18.1429 30.1979 18.414 29.7443C18.6852 29.2907 19.0746 28.9166 19.542 28.6609L42.09 16.3402H42.087Z" stroke="white" stroke-width="2" stroke-linecap="round" stroke-linejoin="round"/>
<path d="M45 44.264V73.7817M18 29.5051L45 44.264L18 29.5051ZM45 44.264L72 29.5051L45 44.264Z" stroke="white" stroke-width="2" stroke-linejoin="round"/>
<path d="M31.5 36.8845L58.5 22.1256" stroke="white" stroke-width="2" stroke-linecap="round" stroke-linejoin="round"/>
<path d="M27 45.2322L36 50.1676" stroke="white" stroke-width="2" stroke-linecap="round" stroke-linejoin="round"/>
</svg>
