<svg width="20" height="13" viewBox="0 0 20 13" fill="none" xmlns="http://www.w3.org/2000/svg">
<path d="M16.4478 1.03248L16.4482 1.03199C16.5483 0.907516 16.7045 0.835123 16.8675 0.835123H18.6253C18.7554 0.835123 18.8661 0.903625 18.9227 1.00519C18.9803 1.10857 18.9786 1.24273 18.8924 1.34987C18.8922 1.35005 18.8921 1.35023 18.8919 1.35041L10.6288 11.7221L16.4478 1.03248ZM16.4478 1.03248L9.90654 9.24155M16.4478 1.03248L9.90654 9.24155M9.90654 9.24155L3.36526 1.03248L3.36487 1.03199C3.26483 0.907516 3.10855 0.835123 2.94561 0.835123H1.1878C1.05759 0.835123 0.947197 0.903693 0.89038 1.00464C0.832659 1.10719 0.83272 1.24114 0.917607 1.34893L0.917605 1.34893L0.918134 1.34959L9.18219 11.7224L9.18231 11.7226C9.54205 12.1729 10.2705 12.1737 10.6285 11.7224L9.90654 9.24155Z" fill="white" stroke="white" stroke-width="0.3"/>
</svg>
